<svg width="92" height="110" viewBox="0 0 92 110" fill="none" xmlns="http://www.w3.org/2000/svg">
<path d="M90.9289 34.84C86.7963 19.7806 79.135 14.1716 73.4359 12.1182C66.8332 9.73945 60.9392 11.3039 57.8976 13.3667C55.2864 15.1378 54.6065 18.1673 54.5044 20.4498C54.4696 20.4441 54.4343 20.44 54.3993 20.4348C54.9067 14.4584 56.5917 5.89109 59.0311 3.97652C59.9168 3.28148 60.0612 2.01261 59.3533 1.1425C58.6454 0.272629 57.3534 0.130774 56.468 0.826054C54.2082 2.59972 52.5313 6.48555 51.3415 12.7058C51.0138 14.42 50.7739 16.0556 50.6032 17.4165L49.6025 7.32601C49.4926 6.21774 48.4879 5.4067 47.3602 5.51463C46.2317 5.62256 45.406 6.60867 45.5158 7.71694L46.3684 16.3163C46.0856 15.9801 45.7946 15.6573 45.4953 15.347C44.7939 10.6988 43.3438 5.08693 40.3549 0.865432C39.7076 -0.0490356 38.4279 -0.274628 37.4973 0.361111C36.5665 0.99685 36.3365 2.25338 36.9838 3.16761C38.7045 5.59813 39.8404 8.66035 40.5899 11.6827C37.2471 9.95057 33.6015 9.34116 30.3913 9.82508C25.815 10.5135 22.7582 12.6805 19.8024 14.7763C16.2981 17.2606 13.2732 19.407 7.80397 19.2407C6.68038 19.2072 5.75122 20.0531 5.69084 21.1467C5.63021 22.2403 6.46953 23.1813 7.58128 23.2665C12.8082 23.6666 19.0566 24.5057 23.3799 25.1395C21.3801 27.0925 19.4278 29.4481 17.4127 31.8798C12.5998 37.6868 7.62307 43.6917 1.79256 44.424C0.90059 44.536 0.186629 45.2051 0.0310844 46.0748C-0.12446 46.9444 0.314157 47.8126 1.11362 48.2168C3.50741 49.4266 6.31277 49.8783 9.16837 49.8783C15.16 49.8783 21.3707 47.8895 24.449 46.7437C29.1315 45.0011 33.4447 42.7514 36.9652 40.2853L37.5555 44.6517C38.3395 50.4476 42.3042 54.8712 47.8493 56.323C47.8217 59.073 47.2346 61.9395 45.839 65.5514C45.5629 66.2659 45.7219 67.0722 46.2496 67.6339C46.644 68.054 47.194 68.2832 47.7587 68.2832C47.9493 68.2832 48.1415 68.2571 48.3301 68.2035C48.705 68.0967 49.0731 67.9793 49.4376 67.856C49.5264 69.3395 49.6262 71.3729 49.6938 73.84C46.3329 70.3965 41.0089 66.9773 35.5591 65.6774C30.3838 64.4429 25.8179 65.2864 22.3554 68.1169C21.7706 68.5949 21.5028 69.3516 21.66 70.0827C21.817 70.814 22.373 71.4 23.1044 71.6054C29.1225 73.2951 31.1142 75.5214 35.4777 80.3988C36.3626 81.3877 37.3652 82.5086 38.4948 83.7233C41.9509 87.44 44.9137 88.4738 47.1413 88.4738C48.1111 88.4738 48.9415 88.2776 49.6124 88.0215C49.3789 94.0313 48.8574 100.778 47.8348 107.694C47.6717 108.796 48.4492 109.819 49.5714 109.979C49.6714 109.993 49.7709 110 49.8689 110C50.872 110 51.7497 109.277 51.898 108.273C52.5472 103.884 52.9979 99.5623 53.3037 95.4451C53.5146 95.5756 53.7358 95.6992 53.9701 95.8138L54.0341 95.8453C54.784 96.2213 55.8318 96.5719 57.1291 96.5719C59.3567 96.5719 62.32 95.5376 65.7755 91.8214C66.9049 90.6069 67.9078 89.4858 68.7927 88.4968C73.1564 83.6192 75.1481 81.3932 81.166 79.7035C81.8976 79.498 82.4536 78.9121 82.6104 78.1808C82.7674 77.4494 82.4997 76.693 81.915 76.215C78.4524 73.3848 73.8868 72.5412 68.7113 73.7754C62.8552 75.1722 57.1416 79.0163 53.8561 82.7076C53.965 74.7219 53.616 68.6165 53.4332 66.0479C58.2188 63.267 61.7785 58.7061 63.8641 52.6115C65.457 47.9566 66.0941 42.5123 65.6584 37.2809C65.4596 34.8955 65.044 32.6673 64.4532 30.715C66.7508 31.3935 69.9103 32.8403 74.0419 35.7898C85.0638 43.6604 84.5286 51.8268 84.502 52.1537C84.4139 53.039 84.9269 53.8763 85.7645 54.2146C86.0179 54.3169 86.2826 54.3662 86.5446 54.3662C87.1492 54.3662 87.739 54.1036 88.1378 53.6223C90.8598 50.3349 93.5545 44.4081 90.9289 34.84ZM55.2531 87.8051C57.1783 83.336 65.2111 78.7596 69.6796 77.6938C71.8304 77.1809 73.7745 77.1138 75.4976 77.4902C71.4418 79.4247 69.0804 82.0645 65.7074 85.8346C64.8348 86.81 63.8457 87.9154 62.7429 89.1015C60.0902 91.9543 57.5962 93.1026 55.8994 92.2527L55.8014 92.2043C55.0963 91.8589 53.7839 91.216 55.2531 87.8051ZM48.4676 84.106L48.3698 84.1544C46.6733 85.0045 44.179 83.8559 41.5263 81.0032C40.4234 79.8171 39.4344 78.7117 38.5617 77.7362C35.189 73.9664 32.8274 71.3264 28.7716 69.3919C30.4944 69.0155 32.4387 69.0826 34.5896 69.5955C41.3372 71.2047 47.7411 76.7471 49.0161 79.7068C50.4853 83.118 49.1728 83.7608 48.4676 84.106ZM22.2056 18.046C24.8849 16.1467 27.4157 14.3526 31.0137 13.8113C33.8879 13.3786 37.1097 14.1545 39.8527 15.941C40.4022 16.2989 40.9993 16.7409 41.6079 17.2765C41.8731 19.4081 41.9765 21.2449 42.0156 22.4538C37.572 19.4582 32.6663 19.1052 28.1871 21.4655C28.0357 21.5452 27.8862 21.6337 27.7362 21.72C25.8617 21.4254 22.4848 20.9121 18.6576 20.4104C19.9321 19.6579 21.0922 18.8357 22.2056 18.046ZM22.9937 42.9727C17.9388 44.8538 13.1111 45.8226 9.19228 45.8226C9.16523 45.8226 9.13794 45.8226 9.11113 45.8226C13.4562 43.0413 17.1801 38.5482 20.5968 34.4256C23.9137 30.4235 27.0466 26.6435 30.1285 25.0192C33.3027 23.3466 36.5503 23.622 39.7815 25.8379C41.5125 27.0249 41.9743 29.3136 40.8331 31.0483C38.0359 35.3 31.0338 39.9807 22.9937 42.9727ZM41.6255 44.1206L40.7048 37.3101C41.5717 36.5176 42.348 35.7158 43.023 34.9123C43.1638 35.7917 43.3626 36.7244 43.6281 37.7141C44.2331 39.9714 44.8282 42.0091 45.3535 43.8072C46.2682 46.9387 47.0177 49.5092 47.45 51.9193C44.692 50.7401 42.1885 48.2833 41.6255 44.1206ZM59.9714 51.3265C58.6562 55.1701 56.0794 59.914 51.0691 62.7245C52.9946 55.3419 51.52 50.2946 49.3001 42.6949C48.7808 40.917 48.1922 38.9016 47.5986 36.6874C46.0356 30.8559 46.9607 26.8821 50.2742 25.1955L50.4184 25.121C51.7347 24.4376 54.8162 22.8369 58.7186 27.9814C60.1571 29.8779 61.2213 33.4769 61.5655 37.6093C61.9567 42.3076 61.3906 47.179 59.9714 51.3265ZM87.4644 45.9671C86.0724 42.1666 83.033 37.2245 76.4555 32.5276C71.1508 28.7409 66.4407 26.6159 62.4514 26.2053C62.3079 25.985 62.162 25.7715 62.0111 25.5724C61.2046 24.5092 60.0738 23.2536 58.6543 22.2379C58.5352 21.0243 58.4261 17.9087 60.2305 16.6849C63.5757 14.4164 68.5628 14.6581 72.0212 15.904C76.8096 17.6293 83.2888 22.4969 86.9639 35.8892C87.9982 39.6574 88.1595 43.0576 87.4644 45.9671Z" fill="white" fill-opacity="0.97"/>
</svg>
