<svg width="232" height="77" viewBox="0 0 232 77" fill="none" xmlns="http://www.w3.org/2000/svg">
<path d="M9.9844 16.7513L50.725 12.6605C50.8722 12.6458 51 12.7613 51 12.9093L51 21.0907C51 21.2387 50.8722 21.3542 50.725 21.3395L9.98439 17.2487C9.87665 17.2379 9.83505 17.1998 9.81415 17.1744C9.78498 17.1388 9.75937 17.0779 9.75937 17C9.75937 16.9221 9.78498 16.8612 9.81415 16.8256C9.83506 16.8002 9.87666 16.7621 9.9844 16.7513Z" fill="#DFDABE" stroke="black" stroke-width="1.5"/>
<mask id="path-2-inside-1" fill="white">
<path fill-rule="evenodd" clip-rule="evenodd" d="M60.5023 17.1446C60.8266 15.9853 61 14.7629 61 13.5C61 6.04416 54.9558 0 47.5 0C40.0442 0 34 6.04416 34 13.5C34 20.9558 40.0442 27 47.5 27C50.7518 27 53.735 25.8503 56.0655 23.9352C58.1131 24.8451 64.821 27.8123 69 29.5C75.6439 32.1832 88.3632 38.4441 91.5 40C91.5 40 94.9169 42.6397 104.393 46.4813C120.717 53.099 130.757 52.93 147.059 49.8912L174.503 65.9126L174.629 65.9861L174.773 66.0071L209.68 71.0827L214.308 76.873L215.48 75.9364L211.903 71.4616L216.871 72.3264L217.129 70.8486L212.536 70.0492L216.118 68.3512L215.475 66.9958L209.964 69.6083L175.134 64.5437L149.326 49.4777C150.733 49.2343 152.076 49.026 153.363 48.8262C153.9 48.743 154.426 48.6613 154.944 48.5792L181.125 60.5798L181.246 60.6352L181.378 60.6457L223.704 63.993L228.307 69.8673L229.488 68.9421L225.891 64.3527L230.869 65.2365L231.131 63.7595L226.503 62.9379L230.125 61.1865L229.472 59.8361L223.948 62.5076L181.629 59.1608L157.575 48.1352C159.815 47.7248 161.885 47.2351 163.843 46.4813C165.976 45.66 171.296 46.9264 177.069 48.3007C183.63 49.8625 190.777 51.5638 194.5 50.5C201.5 48.5 195.5 44 195.5 44C195.5 44 200.173 42.2778 200.173 38.975C200.173 35.6723 194 35 194 35C194 35 198.5 32 195.069 29.0667C191.638 26.1335 170 35 165.344 37.4738C165.344 37.4738 160.789 33.6896 157.538 31.769C148.745 26.5748 142.524 25.1737 132.317 24.8632C125.295 24.6496 121.154 25.6649 114.645 27.261C114.24 27.3603 113.825 27.4618 113.401 27.5655C110.928 28.1691 108.981 29.1895 107.123 30.1625C104.382 31.5991 101.837 32.9326 98.088 32.6698C94.6818 32.431 87.5 30.5 87.5 30.5C87.5 30.5 75.5 26.5 66.5 21C63.659 19.2638 61.7646 18.0259 60.5023 17.1446Z"/>
</mask>
<path fill-rule="evenodd" clip-rule="evenodd" d="M60.5023 17.1446C60.8266 15.9853 61 14.7629 61 13.5C61 6.04416 54.9558 0 47.5 0C40.0442 0 34 6.04416 34 13.5C34 20.9558 40.0442 27 47.5 27C50.7518 27 53.735 25.8503 56.0655 23.9352C58.1131 24.8451 64.821 27.8123 69 29.5C75.6439 32.1832 88.3632 38.4441 91.5 40C91.5 40 94.9169 42.6397 104.393 46.4813C120.717 53.099 130.757 52.93 147.059 49.8912L174.503 65.9126L174.629 65.9861L174.773 66.0071L209.68 71.0827L214.308 76.873L215.48 75.9364L211.903 71.4616L216.871 72.3264L217.129 70.8486L212.536 70.0492L216.118 68.3512L215.475 66.9958L209.964 69.6083L175.134 64.5437L149.326 49.4777C150.733 49.2343 152.076 49.026 153.363 48.8262C153.9 48.743 154.426 48.6613 154.944 48.5792L181.125 60.5798L181.246 60.6352L181.378 60.6457L223.704 63.993L228.307 69.8673L229.488 68.9421L225.891 64.3527L230.869 65.2365L231.131 63.7595L226.503 62.9379L230.125 61.1865L229.472 59.8361L223.948 62.5076L181.629 59.1608L157.575 48.1352C159.815 47.7248 161.885 47.2351 163.843 46.4813C165.976 45.66 171.296 46.9264 177.069 48.3007C183.63 49.8625 190.777 51.5638 194.5 50.5C201.5 48.5 195.5 44 195.5 44C195.5 44 200.173 42.2778 200.173 38.975C200.173 35.6723 194 35 194 35C194 35 198.5 32 195.069 29.0667C191.638 26.1335 170 35 165.344 37.4738C165.344 37.4738 160.789 33.6896 157.538 31.769C148.745 26.5748 142.524 25.1737 132.317 24.8632C125.295 24.6496 121.154 25.6649 114.645 27.261C114.24 27.3603 113.825 27.4618 113.401 27.5655C110.928 28.1691 108.981 29.1895 107.123 30.1625C104.382 31.5991 101.837 32.9326 98.088 32.6698C94.6818 32.431 87.5 30.5 87.5 30.5C87.5 30.5 75.5 26.5 66.5 21C63.659 19.2638 61.7646 18.0259 60.5023 17.1446Z" fill="#E7E7E7"/>
<path d="M60.5023 17.1446L59.0577 16.7406L58.7711 17.7654L59.6436 18.3745L60.5023 17.1446ZM56.0655 23.9352L56.6746 22.5645L55.8285 22.1885L55.1131 22.7763L56.0655 23.9352ZM69 29.5L69.5617 28.1092L69.5617 28.1092L69 29.5ZM91.5 40L92.417 38.813L92.2995 38.7222L92.1665 38.6563L91.5 40ZM104.393 46.4813L103.83 47.8714L103.83 47.8714L104.393 46.4813ZM147.059 49.8912L147.815 48.5957L147.333 48.3142L146.784 48.4166L147.059 49.8912ZM174.503 65.9126L173.747 67.208L173.747 67.208L174.503 65.9126ZM174.629 65.9861L173.873 67.2815L174.125 67.4285L174.413 67.4705L174.629 65.9861ZM174.773 66.0071L174.558 67.4915L174.558 67.4915L174.773 66.0071ZM209.68 71.0827L210.851 70.1461L210.481 69.6836L209.895 69.5984L209.68 71.0827ZM214.308 76.873L213.137 77.8096L214.073 78.9812L215.245 78.0446L214.308 76.873ZM215.48 75.9364L216.417 77.108L217.588 76.1714L216.652 74.9997L215.48 75.9364ZM211.903 71.4616L212.16 69.9838L208.258 69.3047L210.731 72.3982L211.903 71.4616ZM216.871 72.3264L216.614 73.8041L218.092 74.0613L218.349 72.5836L216.871 72.3264ZM217.129 70.8486L218.606 71.1058L218.864 69.628L217.386 69.3708L217.129 70.8486ZM212.536 70.0492L211.893 68.6938L207.625 70.7171L212.279 71.527L212.536 70.0492ZM216.118 68.3512L216.76 69.7066L218.116 69.0641L217.473 67.7087L216.118 68.3512ZM215.475 66.9958L216.831 66.3532L216.188 64.9978L214.833 65.6404L215.475 66.9958ZM209.964 69.6083L209.748 71.0927L210.197 71.158L210.607 70.9638L209.964 69.6083ZM175.134 64.5437L174.377 65.8391L174.629 65.9861L174.918 66.0281L175.134 64.5437ZM149.326 49.4777L149.07 47.9997L145.019 48.7006L148.57 50.7732L149.326 49.4777ZM153.363 48.8262L153.134 47.3439L153.134 47.3439L153.363 48.8262ZM154.944 48.5792L155.569 47.2156L155.157 47.0267L154.709 47.0977L154.944 48.5792ZM181.125 60.5798L181.75 59.2162L181.75 59.2162L181.125 60.5798ZM181.246 60.6352L180.621 61.9987L180.862 62.1096L181.127 62.1305L181.246 60.6352ZM181.378 60.6457L181.496 59.1503L181.496 59.1503L181.378 60.6457ZM223.704 63.993L224.885 63.0679L224.479 62.5496L223.822 62.4977L223.704 63.993ZM228.307 69.8673L227.126 70.7924L228.051 71.9731L229.232 71.0479L228.307 69.8673ZM229.488 68.9421L230.413 70.1228L231.594 69.1976L230.668 68.0169L229.488 68.9421ZM225.891 64.3527L226.154 62.8758L222.291 62.19L224.711 65.2779L225.891 64.3527ZM230.869 65.2365L230.607 66.7134L232.084 66.9756L232.346 65.4987L230.869 65.2365ZM231.131 63.7595L232.608 64.0218L232.87 62.5449L231.393 62.2826L231.131 63.7595ZM226.503 62.9379L225.85 61.5875L221.679 63.6048L226.241 64.4148L226.503 62.9379ZM230.125 61.1865L230.778 62.5369L232.128 61.8839L231.475 60.5335L230.125 61.1865ZM229.472 59.8361L230.822 59.1831L230.169 57.8327L228.819 58.4858L229.472 59.8361ZM223.948 62.5076L223.829 64.003L224.235 64.035L224.601 63.858L223.948 62.5076ZM181.629 59.1608L181.004 60.5244L181.246 60.6352L181.511 60.6561L181.629 59.1608ZM157.575 48.1352L157.305 46.6598L152.627 47.5171L156.95 49.4988L157.575 48.1352ZM163.843 46.4813L163.304 45.0815L163.304 45.0815L163.843 46.4813ZM177.069 48.3007L177.417 46.8415L177.069 48.3007ZM194.5 50.5L194.088 49.0577L194.088 49.0577L194.5 50.5ZM195.5 44L194.981 42.5925L192.394 43.5458L194.6 45.2L195.5 44ZM194 35L193.168 33.7519L189.73 36.0438L193.838 36.4912L194 35ZM165.344 37.4738L164.386 38.6276L165.16 39.2705L166.048 38.7984L165.344 37.4738ZM157.538 31.769L158.301 30.4775L158.301 30.4775L157.538 31.769ZM132.317 24.8632L132.271 26.3625L132.271 26.3625L132.317 24.8632ZM114.645 27.261L114.287 25.8041L114.287 25.8041L114.645 27.261ZM113.401 27.5655L113.756 29.0227L113.756 29.0227L113.401 27.5655ZM107.123 30.1625L107.82 31.4912L107.82 31.4912L107.123 30.1625ZM98.088 32.6698L98.1929 31.1734L98.1928 31.1734L98.088 32.6698ZM87.5 30.5L87.0257 31.9231L87.0677 31.9371L87.1105 31.9486L87.5 30.5ZM66.5 21L65.7178 22.28L65.7178 22.28L66.5 21ZM59.5 13.5C59.5 14.625 59.3456 15.7115 59.0577 16.7406L61.9468 17.5487C62.3076 16.2591 62.5 14.9008 62.5 13.5H59.5ZM47.5 1.5C54.1274 1.5 59.5 6.87258 59.5 13.5H62.5C62.5 5.21573 55.7843 -1.5 47.5 -1.5V1.5ZM35.5 13.5C35.5 6.87258 40.8726 1.5 47.5 1.5V-1.5C39.2157 -1.5 32.5 5.21573 32.5 13.5H35.5ZM47.5 25.5C40.8726 25.5 35.5 20.1274 35.5 13.5H32.5C32.5 21.7843 39.2157 28.5 47.5 28.5V25.5ZM55.1131 22.7763C53.0412 24.479 50.3918 25.5 47.5 25.5V28.5C51.1117 28.5 54.4289 27.2216 57.0178 25.0941L55.1131 22.7763ZM55.4563 25.306C57.4995 26.2139 64.2313 29.1919 68.4383 30.8909L69.5617 28.1092C65.4108 26.4328 58.7267 23.4764 56.6746 22.5645L55.4563 25.306ZM68.4383 30.8909C75.0175 33.548 87.6801 39.7797 90.8335 41.3438L92.1665 38.6563C89.0463 37.1085 76.2703 30.8185 69.5617 28.1092L68.4383 30.8909ZM91.5 40C90.583 41.1871 90.5833 41.1874 90.5837 41.1877C90.5839 41.1878 90.5843 41.1881 90.5846 41.1883C90.5852 41.1888 90.5858 41.1893 90.5865 41.1898C90.588 41.1909 90.5896 41.1921 90.5914 41.1935C90.595 41.1963 90.5995 41.1997 90.6049 41.2038C90.6156 41.2119 90.6297 41.2225 90.6473 41.2355C90.6825 41.2616 90.7317 41.2976 90.7955 41.343C90.923 41.4338 91.1091 41.5625 91.3588 41.7264C91.8581 42.0542 92.6118 42.5226 93.6608 43.1093C95.7589 44.2825 99.039 45.9294 103.83 47.8714L104.957 45.0912C100.271 43.1917 97.1046 41.5979 95.1251 40.4909C94.1354 39.9374 93.4426 39.5058 93.0051 39.2186C92.7864 39.075 92.6315 38.9675 92.5352 38.8989C92.4871 38.8647 92.4536 38.8401 92.4341 38.8257C92.4244 38.8185 92.4181 38.8138 92.4153 38.8117C92.4139 38.8106 92.4133 38.8102 92.4136 38.8104C92.4138 38.8105 92.4141 38.8108 92.4147 38.8112C92.415 38.8114 92.4153 38.8117 92.4157 38.812C92.4159 38.8121 92.4162 38.8124 92.4163 38.8125C92.4167 38.8127 92.417 38.813 91.5 40ZM103.83 47.8714C112.102 51.2249 118.854 52.8872 125.642 53.3046C132.415 53.721 139.143 52.8926 147.334 51.3658L146.784 48.4166C138.673 49.9285 132.23 50.704 125.826 50.3102C119.439 49.9175 113.009 48.3554 104.957 45.0912L103.83 47.8714ZM146.302 51.1866L173.747 67.208L175.259 64.6172L147.815 48.5957L146.302 51.1866ZM173.747 67.208L173.873 67.2815L175.385 64.6907L175.259 64.6171L173.747 67.208ZM174.413 67.4705L174.558 67.4915L174.989 64.5227L174.845 64.5017L174.413 67.4705ZM174.558 67.4915L209.464 72.5671L209.895 69.5984L174.989 64.5227L174.558 67.4915ZM208.508 72.0194L213.137 77.8096L215.48 75.9364L210.851 70.1461L208.508 72.0194ZM215.245 78.0446L216.417 77.108L214.543 74.7647L213.372 75.7013L215.245 78.0446ZM216.652 74.9997L213.074 70.525L210.731 72.3982L214.308 76.873L216.652 74.9997ZM211.646 72.9394L216.614 73.8041L217.129 70.8486L212.16 69.9838L211.646 72.9394ZM218.349 72.5836L218.606 71.1058L215.651 70.5914L215.394 72.0692L218.349 72.5836ZM217.386 69.3708L212.793 68.5714L212.279 71.527L216.871 72.3264L217.386 69.3708ZM213.178 71.4046L216.76 69.7066L215.475 66.9958L211.893 68.6938L213.178 71.4046ZM217.473 67.7087L216.831 66.3532L214.12 67.6383L214.762 68.9937L217.473 67.7087ZM214.833 65.6404L209.322 68.2529L210.607 70.9638L216.118 68.3512L214.833 65.6404ZM210.18 68.124L175.349 63.0593L174.918 66.0281L209.748 71.0927L210.18 68.124ZM175.89 63.2482L150.082 48.1823L148.57 50.7732L174.377 65.8391L175.89 63.2482ZM149.582 50.9558C150.973 50.7149 152.304 50.5085 153.593 50.3085L153.134 47.3439C151.847 47.5434 150.492 47.7537 149.07 47.9997L149.582 50.9558ZM153.593 50.3085C154.129 50.2254 154.658 50.1433 155.179 50.0607L154.709 47.0977C154.194 47.1794 153.67 47.2607 153.134 47.3439L153.593 50.3085ZM154.319 49.9428L180.5 61.9434L181.75 59.2162L155.569 47.2156L154.319 49.9428ZM180.5 61.9433L180.621 61.9987L181.871 59.2716L181.75 59.2162L180.5 61.9433ZM181.127 62.1305L181.26 62.141L181.496 59.1503L181.364 59.1398L181.127 62.1305ZM181.26 62.141L223.586 65.4884L223.822 62.4977L181.496 59.1503L181.26 62.141ZM222.523 64.9182L227.126 70.7924L229.488 68.9421L224.885 63.0679L222.523 64.9182ZM229.232 71.0479L230.413 70.1228L228.563 67.7614L227.382 68.6866L229.232 71.0479ZM230.668 68.0169L227.072 63.4275L224.711 65.2779L228.307 69.8673L230.668 68.0169ZM225.629 65.8296L230.607 66.7134L231.131 63.7595L226.154 62.8758L225.629 65.8296ZM232.346 65.4987L232.608 64.0218L229.654 63.4973L229.392 64.9742L232.346 65.4987ZM231.393 62.2826L226.766 61.461L226.241 64.4148L230.869 65.2364L231.393 62.2826ZM227.156 64.2883L230.778 62.5369L229.472 59.8361L225.85 61.5875L227.156 64.2883ZM231.475 60.5335L230.822 59.1831L228.122 60.4892L228.775 61.8396L231.475 60.5335ZM228.819 58.4858L223.295 61.1573L224.601 63.858L230.125 61.1865L228.819 58.4858ZM224.066 61.0123L181.747 57.6655L181.511 60.6561L223.829 64.003L224.066 61.0123ZM182.254 57.7972L158.2 46.7716L156.95 49.4988L181.004 60.5244L182.254 57.7972ZM157.846 49.6106C160.126 49.1926 162.3 48.6829 164.382 47.8812L163.304 45.0815C161.471 45.7874 159.503 46.2569 157.305 46.6598L157.846 49.6106ZM164.382 47.8812C164.639 47.7823 165.135 47.7025 165.956 47.7253C166.748 47.7473 167.718 47.8599 168.845 48.0473C171.101 48.4228 173.819 49.069 176.722 49.76L177.417 46.8415C174.546 46.1581 171.717 45.484 169.337 45.088C168.145 44.8897 167.025 44.7538 166.039 44.7264C165.082 44.6998 164.114 44.7697 163.304 45.0815L164.382 47.8812ZM176.722 49.76C179.988 50.5375 183.474 51.3681 186.613 51.8664C189.692 52.3549 192.703 52.5735 194.912 51.9423L194.088 49.0577C192.574 49.4903 190.15 49.3901 187.084 48.9035C184.079 48.4266 180.711 47.6257 177.417 46.8415L176.722 49.76ZM194.912 51.9423C196.8 51.4028 198.183 50.6 198.896 49.4123C199.661 48.1369 199.423 46.8296 198.991 45.8793C198.569 44.9526 197.893 44.178 197.389 43.6737C197.127 43.4115 196.887 43.1993 196.712 43.051C196.624 42.9766 196.55 42.9173 196.497 42.8751C196.47 42.8539 196.448 42.8369 196.432 42.8244C196.424 42.8181 196.417 42.8129 196.412 42.8088C196.409 42.8068 196.407 42.805 196.405 42.8035C196.404 42.8028 196.403 42.8021 196.402 42.8015C196.402 42.8012 196.401 42.8009 196.401 42.8007C196.4 42.8003 196.4 42.8 195.5 44C194.6 45.2 194.6 45.1996 194.599 45.1993C194.599 45.1993 194.599 45.199 194.598 45.1988C194.598 45.1985 194.598 45.1982 194.597 45.198C194.597 45.1977 194.597 45.1975 194.597 45.1977C194.597 45.1979 194.599 45.1992 194.602 45.2015C194.608 45.2061 194.619 45.2146 194.634 45.2269C194.666 45.2516 194.714 45.291 194.777 45.3434C194.902 45.4491 195.077 45.6041 195.267 45.795C195.669 46.1969 196.056 46.6724 196.259 47.1207C196.452 47.5454 196.402 47.738 196.323 47.8689C196.192 48.0874 195.7 48.5971 194.088 49.0577L194.912 51.9423ZM195.5 44C196.019 45.4074 196.019 45.4073 196.02 45.4071C196.02 45.407 196.02 45.4069 196.021 45.4067C196.021 45.4065 196.022 45.4062 196.023 45.4059C196.025 45.4052 196.027 45.4045 196.029 45.4036C196.034 45.4019 196.039 45.3997 196.046 45.3971C196.06 45.392 196.078 45.385 196.1 45.3763C196.144 45.3589 196.205 45.3345 196.28 45.303C196.431 45.2401 196.639 45.1485 196.886 45.0282C197.377 44.7896 198.041 44.4286 198.715 43.9423C199.989 43.0221 201.673 41.3754 201.673 38.975H198.673C198.673 39.8775 198.021 40.7432 196.959 41.5098C196.464 41.8669 195.96 42.1428 195.574 42.3303C195.383 42.4231 195.227 42.4919 195.121 42.536C195.069 42.5581 195.029 42.5739 195.005 42.5833C194.993 42.588 194.985 42.5912 194.981 42.5927C194.979 42.5935 194.978 42.5938 194.978 42.5938C194.978 42.5938 194.978 42.5937 194.979 42.5935C194.979 42.5933 194.979 42.5932 194.98 42.5931C194.98 42.593 194.98 42.5928 194.981 42.5928C194.981 42.5926 194.981 42.5925 195.5 44ZM201.673 38.975C201.673 37.6213 201.022 36.5834 200.219 35.852C199.442 35.144 198.473 34.6682 197.615 34.3451C196.741 34.0163 195.884 33.8096 195.256 33.6852C194.939 33.6224 194.673 33.5792 194.484 33.5513C194.389 33.5373 194.312 33.5271 194.258 33.5202C194.231 33.5168 194.209 33.5141 194.193 33.5123C194.185 33.5113 194.178 33.5106 194.173 33.51C194.171 33.5097 194.168 33.5095 194.167 33.5093C194.166 33.5092 194.165 33.5091 194.164 33.509C194.164 33.5089 194.163 33.5089 194.163 33.5089C194.163 33.5088 194.162 33.5088 194 35C193.838 36.4912 193.837 36.4911 193.837 36.4911C193.837 36.4911 193.837 36.491 193.836 36.491C193.836 36.491 193.836 36.491 193.836 36.4909C193.835 36.4909 193.835 36.4909 193.836 36.491C193.837 36.4911 193.839 36.4913 193.843 36.4917C193.85 36.4926 193.863 36.4941 193.881 36.4964C193.917 36.501 193.973 36.5085 194.047 36.5193C194.195 36.5411 194.411 36.5762 194.673 36.628C195.202 36.7329 195.889 36.9008 196.558 37.1528C197.243 37.4107 197.818 37.7222 198.198 38.0692C198.553 38.3927 198.673 38.6774 198.673 38.975H201.673ZM194 35C194.832 36.248 194.833 36.2477 194.833 36.2474C194.833 36.2472 194.834 36.2469 194.834 36.2466C194.835 36.2461 194.836 36.2455 194.837 36.2449C194.839 36.2436 194.841 36.2422 194.843 36.2405C194.848 36.2372 194.854 36.2332 194.861 36.2284C194.875 36.2189 194.893 36.2063 194.915 36.1907C194.959 36.1597 195.018 36.1169 195.09 36.0629C195.233 35.9552 195.427 35.8013 195.646 35.6069C196.074 35.2268 196.642 34.6516 197.094 33.9269C197.544 33.2045 197.942 32.2288 197.844 31.1007C197.742 29.934 197.132 28.8569 196.044 27.9266L194.094 30.2069C194.722 30.7432 194.836 31.141 194.855 31.3618C194.878 31.6212 194.794 31.9455 194.548 32.3398C194.304 32.7316 193.962 33.0898 193.653 33.3639C193.504 33.4966 193.373 33.5999 193.283 33.6678C193.239 33.7016 193.205 33.726 193.184 33.7404C193.174 33.7475 193.167 33.7522 193.165 33.7541C193.163 33.7551 193.163 33.7554 193.163 33.755C193.164 33.7549 193.164 33.7545 193.165 33.754C193.165 33.7537 193.166 33.7534 193.166 33.7531C193.166 33.7529 193.167 33.7526 193.167 33.7525C193.167 33.7522 193.168 33.7519 194 35ZM196.044 27.9266C195.216 27.2185 194.068 27.0219 193.052 26.9853C191.973 26.9465 190.712 27.0805 189.37 27.318C186.679 27.7945 183.425 28.7321 180.188 29.8209C173.718 31.9966 167.063 34.8618 164.64 36.1492L166.048 38.7984C168.281 37.6119 174.773 34.807 181.144 32.6644C184.327 31.594 187.417 30.7104 189.893 30.2721C191.135 30.0522 192.164 29.9553 192.944 29.9834C193.331 29.9974 193.62 30.0411 193.824 30.0971C194.03 30.1538 194.096 30.2082 194.094 30.2069L196.044 27.9266ZM165.344 37.4738C166.303 36.3199 166.303 36.3199 166.303 36.3198C166.302 36.3198 166.302 36.3197 166.302 36.3196C166.302 36.3194 166.302 36.3192 166.301 36.3189C166.301 36.3183 166.3 36.3175 166.298 36.3164C166.296 36.3143 166.292 36.3114 166.288 36.3075C166.278 36.2997 166.265 36.2885 166.247 36.2738C166.211 36.2445 166.159 36.2018 166.093 36.147C165.959 36.0374 165.765 35.8794 165.522 35.6842C165.038 35.2939 164.357 34.7534 163.573 34.1517C162.019 32.9589 160.008 31.4863 158.301 30.4775L156.775 33.0605C158.318 33.9723 160.21 35.3521 161.747 36.5315C162.508 37.116 163.17 37.6416 163.641 38.0208C163.876 38.2104 164.064 38.363 164.192 38.4679C164.256 38.5203 164.305 38.5607 164.338 38.5878C164.354 38.6014 164.366 38.6116 164.374 38.6183C164.378 38.6216 164.381 38.6241 164.383 38.6256C164.384 38.6264 164.385 38.627 164.385 38.6273C164.386 38.6275 164.386 38.6276 164.386 38.6276C164.386 38.6277 164.386 38.6277 164.386 38.6277C164.386 38.6277 164.386 38.6276 165.344 37.4738ZM158.301 30.4775C149.25 25.1309 142.771 23.6806 132.362 23.3639L132.271 26.3625C142.277 26.6669 148.24 28.0187 156.775 33.0605L158.301 30.4775ZM132.362 23.3639C125.122 23.1437 120.812 24.2043 114.287 25.8041L115.002 28.7178C121.496 27.1255 125.467 26.1556 132.271 26.3625L132.362 23.3639ZM114.287 25.8041C113.882 25.9035 113.469 26.0048 113.045 26.1083L113.756 29.0227C114.182 28.9188 114.597 28.8171 115.002 28.7178L114.287 25.8041ZM113.045 26.1083C110.372 26.7607 108.276 27.865 106.427 28.8338L107.82 31.4912C109.685 30.5139 111.483 29.5775 113.756 29.0227L113.045 26.1083ZM106.427 28.8338C103.68 30.2731 101.476 31.4036 98.1929 31.1734L97.9831 34.1661C102.198 34.4615 105.083 32.9251 107.82 31.4912L106.427 28.8338ZM98.1928 31.1734C96.6233 31.0634 94.0845 30.5485 91.854 30.0338C90.7569 29.7806 89.7639 29.5346 89.0451 29.3517C88.6859 29.2604 88.3957 29.185 88.1959 29.1326C88.096 29.1064 88.0187 29.0859 87.9668 29.0721C87.9408 29.0652 87.9211 29.06 87.9081 29.0565C87.9016 29.0547 87.8968 29.0534 87.8937 29.0526C87.8921 29.0522 87.891 29.0519 87.8903 29.0517C87.8899 29.0516 87.8897 29.0515 87.8896 29.0515C87.8895 29.0515 87.8895 29.0515 87.8894 29.0515C87.8894 29.0515 87.8895 29.0515 87.5 30.5C87.1105 31.9486 87.1106 31.9486 87.1107 31.9486C87.1108 31.9487 87.111 31.9487 87.1111 31.9487C87.1114 31.9488 87.1118 31.9489 87.1123 31.9491C87.1134 31.9494 87.1149 31.9497 87.1168 31.9503C87.1206 31.9513 87.1261 31.9528 87.1333 31.9547C87.1477 31.9585 87.1687 31.9642 87.1962 31.9714C87.2511 31.986 87.3315 32.0073 87.4346 32.0344C87.6408 32.0885 87.9384 32.1658 88.3057 32.2592C89.0398 32.4459 90.0552 32.6975 91.1794 32.9569C93.3913 33.4674 96.1465 34.0373 97.9831 34.1661L98.1928 31.1734ZM87.5 30.5C87.9743 29.077 87.9744 29.077 87.9745 29.077C87.9744 29.077 87.9744 29.077 87.9743 29.077C87.9741 29.0769 87.9738 29.0768 87.9732 29.0766C87.9721 29.0763 87.9703 29.0756 87.9677 29.0748C87.9626 29.0731 87.9547 29.0704 87.9439 29.0668C87.9223 29.0595 87.8896 29.0485 87.846 29.0337C87.7589 29.004 87.6287 28.9594 87.4591 28.9005C87.1198 28.7826 86.623 28.6074 85.9977 28.3797C84.7468 27.9241 82.9841 27.2592 80.9429 26.4242C76.849 24.7494 71.683 22.4095 67.2822 19.7201L65.7178 22.28C70.317 25.0905 75.651 27.5007 79.8071 29.2009C81.8909 30.0533 83.6907 30.7322 84.9711 31.1985C85.6114 31.4317 86.1224 31.612 86.4745 31.7343C86.6506 31.7955 86.787 31.8422 86.88 31.8739C86.9266 31.8897 86.9623 31.9018 86.9867 31.91C86.9989 31.9141 87.0083 31.9173 87.0148 31.9194C87.0181 31.9205 87.0206 31.9214 87.0224 31.922C87.0233 31.9223 87.024 31.9225 87.0246 31.9227C87.0249 31.9228 87.0251 31.9229 87.0253 31.9229C87.0255 31.923 87.0257 31.9231 87.5 30.5ZM67.2822 19.7201C64.4561 17.9931 62.5895 16.7724 61.361 15.9147L59.6436 18.3745C60.9396 19.2794 62.8618 20.5346 65.7178 22.28L67.2822 19.7201Z" fill="black" mask="url(#path-2-inside-1)"/>
<circle cx="42.5" cy="11.5" r="1.5" fill="black"/>
</svg>
