<svg width="119" height="52" viewBox="0 0 119 52" fill="none" xmlns="http://www.w3.org/2000/svg">
<path d="M31.6907 3.06L25.8407 24H20.8907L16.9607 9.09L12.8507 24L7.93067 24.03L2.29066 3.06H6.79067L10.4807 19.32L14.7407 3.06H19.4207L23.4407 19.23L27.1607 3.06H31.6907ZM45.8931 7.14C47.1531 7.14 48.2731 7.42 49.2531 7.98C50.2331 8.52 50.9931 9.33 51.5331 10.41C52.0931 11.47 52.3731 12.75 52.3731 14.25V24H48.1731V14.82C48.1731 13.5 47.8431 12.49 47.1831 11.79C46.5231 11.07 45.6231 10.71 44.4831 10.71C43.3231 10.71 42.4031 11.07 41.7231 11.79C41.0631 12.49 40.7331 13.5 40.7331 14.82V24H36.5331V1.8H40.7331V9.45C41.2731 8.73 41.9931 8.17 42.8931 7.77C43.7931 7.35 44.7931 7.14 45.8931 7.14ZM57.3871 15.63C57.3871 13.95 57.7171 12.46 58.3771 11.16C59.0571 9.86 59.9671 8.86 61.1071 8.16C62.2671 7.46 63.5571 7.11 64.9771 7.11C66.2171 7.11 67.2971 7.36 68.2171 7.86C69.1571 8.36 69.9071 8.99 70.4671 9.75V7.38H74.6971V24H70.4671V21.57C69.9271 22.35 69.1771 23 68.2171 23.52C67.2771 24.02 66.1871 24.27 64.9471 24.27C63.5471 24.27 62.2671 23.91 61.1071 23.19C59.9671 22.47 59.0571 21.46 58.3771 20.16C57.7171 18.84 57.3871 17.33 57.3871 15.63ZM70.4671 15.69C70.4671 14.67 70.2671 13.8 69.8671 13.08C69.4671 12.34 68.9271 11.78 68.2471 11.4C67.5671 11 66.8371 10.8 66.0571 10.8C65.2771 10.8 64.5571 10.99 63.8971 11.37C63.2371 11.75 62.6971 12.31 62.2771 13.05C61.8771 13.77 61.6771 14.63 61.6771 15.63C61.6771 16.63 61.8771 17.51 62.2771 18.27C62.6971 19.01 63.2371 19.58 63.8971 19.98C64.5771 20.38 65.2971 20.58 66.0571 20.58C66.8371 20.58 67.5671 20.39 68.2471 20.01C68.9271 19.61 69.4671 19.05 69.8671 18.33C70.2671 17.59 70.4671 16.71 70.4671 15.69ZM85.7891 10.83V18.87C85.7891 19.43 85.9191 19.84 86.1791 20.1C86.4591 20.34 86.9191 20.46 87.5591 20.46H89.5091V24H86.8691C83.3291 24 81.5591 22.28 81.5591 18.84V10.83H79.5791V7.38H81.5591V3.27H85.7891V7.38H89.5091V10.83H85.7891ZM95.47 3.06H99.88L96.64 10.62H93.76L95.47 3.06ZM111.352 24.27C109.992 24.27 108.772 24.03 107.692 23.55C106.612 23.05 105.752 22.38 105.112 21.54C104.492 20.7 104.152 19.77 104.092 18.75H108.322C108.402 19.39 108.712 19.92 109.252 20.34C109.812 20.76 110.502 20.97 111.322 20.97C112.122 20.97 112.742 20.81 113.182 20.49C113.642 20.17 113.872 19.76 113.872 19.26C113.872 18.72 113.592 18.32 113.032 18.06C112.492 17.78 111.622 17.48 110.422 17.16C109.182 16.86 108.162 16.55 107.362 16.23C106.582 15.91 105.902 15.42 105.322 14.76C104.762 14.1 104.482 13.21 104.482 12.09C104.482 11.17 104.742 10.33 105.262 9.57C105.802 8.81 106.562 8.21 107.542 7.77C108.542 7.33 109.712 7.11 111.052 7.11C113.032 7.11 114.612 7.61 115.792 8.61C116.972 9.59 117.622 10.92 117.742 12.6H113.722C113.662 11.94 113.382 11.42 112.882 11.04C112.402 10.64 111.752 10.44 110.932 10.44C110.172 10.44 109.582 10.58 109.162 10.86C108.762 11.14 108.562 11.53 108.562 12.03C108.562 12.59 108.842 13.02 109.402 13.32C109.962 13.6 110.832 13.89 112.012 14.19C113.212 14.49 114.202 14.8 114.982 15.12C115.762 15.44 116.432 15.94 116.992 16.62C117.572 17.28 117.872 18.16 117.892 19.26C117.892 20.22 117.622 21.08 117.082 21.84C116.562 22.6 115.802 23.2 114.802 23.64C113.822 24.06 112.672 24.27 111.352 24.27ZM22.7937 33.14C24.7737 33.14 26.3737 33.77 27.5937 35.03C28.8137 36.27 29.4237 38.01 29.4237 40.25V50H25.2237V40.82C25.2237 39.5 24.8937 38.49 24.2337 37.79C23.5737 37.07 22.6737 36.71 21.5337 36.71C20.3737 36.71 19.4537 37.07 18.7737 37.79C18.1137 38.49 17.7837 39.5 17.7837 40.82V50H13.5837V33.38H17.7837V35.45C18.3437 34.73 19.0537 34.17 19.9137 33.77C20.7937 33.35 21.7537 33.14 22.7937 33.14ZM50.9677 41.33C50.9677 41.93 50.9277 42.47 50.8477 42.95H38.6977C38.7977 44.15 39.2177 45.09 39.9577 45.77C40.6977 46.45 41.6077 46.79 42.6877 46.79C44.2477 46.79 45.3577 46.12 46.0177 44.78H50.5477C50.0677 46.38 49.1477 47.7 47.7877 48.74C46.4277 49.76 44.7577 50.27 42.7777 50.27C41.1777 50.27 39.7377 49.92 38.4577 49.22C37.1977 48.5 36.2077 47.49 35.4877 46.19C34.7877 44.89 34.4377 43.39 34.4377 41.69C34.4377 39.97 34.7877 38.46 35.4877 37.16C36.1877 35.86 37.1677 34.86 38.4277 34.16C39.6877 33.46 41.1377 33.11 42.7777 33.11C44.3577 33.11 45.7677 33.45 47.0077 34.13C48.2677 34.81 49.2377 35.78 49.9177 37.04C50.6177 38.28 50.9677 39.71 50.9677 41.33ZM46.6177 40.13C46.5977 39.05 46.2077 38.19 45.4477 37.55C44.6877 36.89 43.7577 36.56 42.6577 36.56C41.6177 36.56 40.7377 36.88 40.0177 37.52C39.3177 38.14 38.8877 39.01 38.7277 40.13H46.6177ZM65.3133 50L61.8933 44.84L58.8633 50H54.3633L59.7933 41.66L54.3033 33.38H59.0433L62.4333 38.51L65.4933 33.38H69.9933L64.5333 41.66L70.0533 50H65.3133ZM79.3245 36.83V44.87C79.3245 45.43 79.4545 45.84 79.7145 46.1C79.9945 46.34 80.4545 46.46 81.0945 46.46H83.0445V50H80.4045C76.8645 50 75.0945 48.28 75.0945 44.84V36.83H73.1145V33.38H75.0945V29.27H79.3245V33.38H83.0445V36.83H79.3245ZM103.264 28.34C105.344 28.34 107.014 28.91 108.274 30.05C109.554 31.17 110.194 32.72 110.194 34.7C110.194 36.66 109.564 38.16 108.304 39.2C107.044 40.22 105.374 40.73 103.294 40.73L103.174 43.04H99.4838L99.3338 37.94H100.684C102.424 37.94 103.764 37.71 104.704 37.25C105.644 36.79 106.114 35.95 106.114 34.73C106.114 33.85 105.854 33.15 105.334 32.63C104.834 32.11 104.144 31.85 103.264 31.85C102.344 31.85 101.624 32.1 101.104 32.6C100.604 33.1 100.354 33.79 100.354 34.67H96.3938C96.3738 33.45 96.6338 32.36 97.1738 31.4C97.7138 30.44 98.5038 29.69 99.5438 29.15C100.604 28.61 101.844 28.34 103.264 28.34ZM101.314 50.21C100.554 50.21 99.9238 49.98 99.4238 49.52C98.9438 49.04 98.7038 48.45 98.7038 47.75C98.7038 47.05 98.9438 46.47 99.4238 46.01C99.9238 45.53 100.554 45.29 101.314 45.29C102.054 45.29 102.664 45.53 103.144 46.01C103.624 46.47 103.864 47.05 103.864 47.75C103.864 48.45 103.624 49.04 103.144 49.52C102.664 49.98 102.054 50.21 101.314 50.21Z" fill="white"/>
<path d="M31.6907 3.06L32.6538 3.32907L33.0083 2.06H31.6907V3.06ZM25.8407 24V25H26.5996L26.8038 24.2691L25.8407 24ZM20.8907 24L19.9237 24.2549L20.1201 25H20.8907V24ZM16.9607 9.09L17.9276 8.83512L16.9823 5.24854L15.9966 8.82426L16.9607 9.09ZM12.8507 24L12.8568 25L13.6136 24.9954L13.8147 24.2657L12.8507 24ZM7.93067 24.03L6.96498 24.2897L7.16534 25.0347L7.93676 25.03L7.93067 24.03ZM2.29066 3.06V2.06H0.986172L1.32498 3.31973L2.29066 3.06ZM6.79067 3.06L7.76587 2.83869L7.58915 2.06H6.79067V3.06ZM10.4807 19.32L9.50546 19.5413L11.448 19.5734L10.4807 19.32ZM14.7407 3.06V2.06H13.9689L13.7733 2.80656L14.7407 3.06ZM19.4207 3.06L20.3911 2.81874L20.2025 2.06H19.4207V3.06ZM23.4407 19.23L22.4702 19.4713L24.4152 19.4542L23.4407 19.23ZM27.1607 3.06V2.06H26.3646L26.1861 2.8358L27.1607 3.06ZM30.7275 2.79093L24.8775 23.7309L26.8038 24.2691L32.6538 3.32907L30.7275 2.79093ZM25.8407 23H20.8907V25H25.8407V23ZM21.8576 23.7451L17.9276 8.83512L15.9937 9.34488L19.9237 24.2549L21.8576 23.7451ZM15.9966 8.82426L11.8866 23.7343L13.8147 24.2657L17.9247 9.35574L15.9966 8.82426ZM12.8446 23L7.92457 23.03L7.93676 25.03L12.8568 25L12.8446 23ZM8.89635 23.7703L3.25635 2.80027L1.32498 3.31973L6.96498 24.2897L8.89635 23.7703ZM2.29066 4.06H6.79067V2.06H2.29066V4.06ZM5.81546 3.28131L9.50546 19.5413L11.4559 19.0987L7.76587 2.83869L5.81546 3.28131ZM11.448 19.5734L15.708 3.31344L13.7733 2.80656L9.51331 19.0666L11.448 19.5734ZM14.7407 4.06H19.4207V2.06H14.7407V4.06ZM18.4502 3.30126L22.4702 19.4713L24.4111 18.9887L20.3911 2.81874L18.4502 3.30126ZM24.4152 19.4542L28.1352 3.2842L26.1861 2.8358L22.4661 19.0058L24.4152 19.4542ZM27.1607 4.06H31.6907V2.06H27.1607V4.06ZM49.2531 7.98L48.7569 8.84824L48.7637 8.85209L48.7705 8.85584L49.2531 7.98ZM51.5331 10.41L50.6387 10.8572L50.6437 10.8672L50.6489 10.8771L51.5331 10.41ZM52.3731 24V25H53.3731V24H52.3731ZM48.1731 24H47.1731V25H48.1731V24ZM47.1831 11.79L46.4459 12.4658L46.4555 12.476L47.1831 11.79ZM41.7231 11.79L40.9961 11.1034L40.9955 11.104L41.7231 11.79ZM40.7331 24V25H41.7331V24H40.7331ZM36.5331 24H35.5331V25H36.5331V24ZM36.5331 1.8V0.8H35.5331V1.8H36.5331ZM40.7331 1.8H41.7331V0.8H40.7331V1.8ZM40.7331 9.45H39.7331V12.45L41.5331 10.05L40.7331 9.45ZM42.8931 7.77L43.2992 8.68381L43.3076 8.68007L43.316 8.67618L42.8931 7.77ZM45.8931 8.14C46.9997 8.14 47.945 8.3843 48.7569 8.84824L49.7492 7.11176C48.6011 6.4557 47.3064 6.14 45.8931 6.14V8.14ZM48.7705 8.85584C49.5587 9.29017 50.1818 9.94345 50.6387 10.8572L52.4275 9.96279C51.8044 8.71655 50.9075 7.74982 49.7357 7.10416L48.7705 8.85584ZM50.6489 10.8771C51.1161 11.7614 51.3731 12.8727 51.3731 14.25H53.3731C53.3731 12.6273 53.0701 11.1786 52.4173 9.94288L50.6489 10.8771ZM51.3731 14.25V24H53.3731V14.25H51.3731ZM52.3731 23H48.1731V25H52.3731V23ZM49.1731 24V14.82H47.1731V24H49.1731ZM49.1731 14.82C49.1731 13.3411 48.802 12.0494 47.9107 11.104L46.4555 12.476C46.8842 12.9306 47.1731 13.6589 47.1731 14.82H49.1731ZM47.9202 11.1143C47.0387 10.1526 45.8521 9.71 44.4831 9.71V11.71C45.3941 11.71 46.0074 11.9874 46.4459 12.4657L47.9202 11.1143ZM44.4831 9.71C43.0992 9.71 41.8975 10.1489 40.9961 11.1034L42.4501 12.4766C42.9086 11.9911 43.5469 11.71 44.4831 11.71V9.71ZM40.9955 11.104C40.1042 12.0494 39.7331 13.3411 39.7331 14.82H41.7331C41.7331 13.6589 42.022 12.9306 42.4507 12.476L40.9955 11.104ZM39.7331 14.82V24H41.7331V14.82H39.7331ZM40.7331 23H36.5331V25H40.7331V23ZM37.5331 24V1.8H35.5331V24H37.5331ZM36.5331 2.8H40.7331V0.8H36.5331V2.8ZM39.7331 1.8V9.45H41.7331V1.8H39.7331ZM41.5331 10.05C41.9613 9.47911 42.54 9.02122 43.2992 8.68381L42.4869 6.85619C41.4461 7.31878 40.5849 7.98089 39.9331 8.85L41.5331 10.05ZM43.316 8.67618C44.0699 8.32435 44.9234 8.14 45.8931 8.14V6.14C44.6628 6.14 43.5163 6.37565 42.4702 6.86382L43.316 8.67618ZM58.3771 11.16L57.4909 10.6965L57.4854 10.7073L58.3771 11.16ZM61.1071 8.16L60.5904 7.30379L60.5838 7.30783L61.1071 8.16ZM68.2171 7.86L67.7395 8.73866L67.7475 8.74287L68.2171 7.86ZM70.4671 9.75L69.662 10.3432L71.4671 12.7929V9.75H70.4671ZM70.4671 7.38V6.38H69.4671V7.38H70.4671ZM74.6971 7.38H75.6971V6.38H74.6971V7.38ZM74.6971 24V25H75.6971V24H74.6971ZM70.4671 24H69.4671V25H70.4671V24ZM70.4671 21.57H71.4671V18.3687L69.6449 21.0008L70.4671 21.57ZM68.2171 23.52L68.6867 24.4029L68.6934 24.3993L68.2171 23.52ZM61.1071 23.19L60.5731 24.0355L60.5797 24.0396L61.1071 23.19ZM58.3771 20.16L57.4826 20.6072L57.4867 20.6154L57.491 20.6235L58.3771 20.16ZM69.8671 13.08L68.9873 13.5555L68.9929 13.5656L69.8671 13.08ZM68.2471 11.4L67.7401 12.2619L67.7496 12.2675L67.7593 12.2729L68.2471 11.4ZM63.8971 11.37L63.3981 10.5034L63.3981 10.5034L63.8971 11.37ZM62.2771 13.05L61.4073 12.5564L61.4029 12.5644L62.2771 13.05ZM62.2771 18.27L61.3922 18.7357L61.3995 18.7498L61.4074 18.7636L62.2771 18.27ZM63.8971 19.98L63.3787 20.8353L63.3901 20.8419L63.8971 19.98ZM68.2471 20.01L68.7349 20.8829L68.7446 20.8775L68.7541 20.8719L68.2471 20.01ZM69.8671 18.33L70.7413 18.8157L70.7468 18.8055L69.8671 18.33ZM58.3871 15.63C58.3871 14.0833 58.6901 12.7524 59.2687 11.6127L57.4854 10.7073C56.7441 12.1675 56.3871 13.8167 56.3871 15.63H58.3871ZM59.2632 11.6235C59.8679 10.4675 60.6588 9.60874 61.6303 9.01217L60.5838 7.30783C59.2754 8.11126 58.2463 9.25252 57.491 10.6965L59.2632 11.6235ZM61.6237 9.01619C62.6202 8.41489 63.73 8.11 64.9771 8.11V6.11C63.3841 6.11 61.914 6.50511 60.5904 7.30381L61.6237 9.01619ZM64.9771 8.11C66.081 8.11 66.9909 8.33176 67.7396 8.73862L68.6946 6.98137C67.6032 6.38824 66.3531 6.11 64.9771 6.11V8.11ZM67.7475 8.74287C68.5724 9.18165 69.2015 9.71821 69.662 10.3432L71.2721 9.1568C70.6126 8.26179 69.7418 7.53835 68.6867 6.97713L67.7475 8.74287ZM71.4671 9.75V7.38H69.4671V9.75H71.4671ZM70.4671 8.38H74.6971V6.38H70.4671V8.38ZM73.6971 7.38V24H75.6971V7.38H73.6971ZM74.6971 23H70.4671V25H74.6971V23ZM71.4671 24V21.57H69.4671V24H71.4671ZM69.6449 21.0008C69.2069 21.6335 68.5836 22.1842 67.7408 22.6407L68.6934 24.3993C69.7705 23.8158 70.6473 23.0665 71.2893 22.1392L69.6449 21.0008ZM67.7475 22.6371C66.9742 23.0484 66.0504 23.27 64.9471 23.27V25.27C66.3238 25.27 67.58 24.9916 68.6867 24.4029L67.7475 22.6371ZM64.9471 23.27C63.7284 23.27 62.6319 22.9595 61.6344 22.3404L60.5797 24.0396C61.9022 24.8605 63.3657 25.27 64.9471 25.27V23.27ZM61.6411 22.3445C60.663 21.7268 59.8689 20.8546 59.2632 19.6965L57.491 20.6235C58.2452 22.0654 59.2711 23.2132 60.5731 24.0355L61.6411 22.3445ZM59.2715 19.7128C58.6908 18.5513 58.3871 17.1984 58.3871 15.63H56.3871C56.3871 17.4616 56.7434 19.1287 57.4826 20.6072L59.2715 19.7128ZM71.4671 15.69C71.4671 14.5401 71.2412 13.4944 70.7412 12.5944L68.9929 13.5656C69.2929 14.1056 69.4671 14.7999 69.4671 15.69H71.4671ZM70.7468 12.6045C70.264 11.7114 69.5939 11.0071 68.7349 10.5271L67.7593 12.2729C68.2603 12.5529 68.6701 12.9686 68.9874 13.5555L70.7468 12.6045ZM68.7541 10.5381C67.9223 10.0488 67.0175 9.8 66.0571 9.8V11.8C66.6566 11.8 67.2119 11.9512 67.7401 12.2619L68.7541 10.5381ZM66.0571 9.8C65.1064 9.8 64.2137 10.0338 63.3981 10.5034L64.396 12.2366C64.9005 11.9462 65.4478 11.8 66.0571 11.8V9.8ZM63.3981 10.5034C62.5659 10.9825 61.9049 11.6798 61.4074 12.5564L63.1468 13.5436C63.4893 12.9402 63.9083 12.5175 64.396 12.2366L63.3981 10.5034ZM61.4029 12.5644C60.9044 13.4616 60.6771 14.4962 60.6771 15.63H62.6771C62.6771 14.7638 62.8497 14.0784 63.1512 13.5356L61.4029 12.5644ZM60.6771 15.63C60.6771 16.7655 60.905 17.8102 61.3922 18.7357L63.162 17.8043C62.8491 17.2098 62.6771 16.4945 62.6771 15.63H60.6771ZM61.4074 18.7636C61.9029 19.6366 62.5581 20.3378 63.3788 20.8352L64.4154 19.1248C63.9161 18.8222 63.4913 18.3834 63.1468 17.7764L61.4074 18.7636ZM63.3901 20.8419C64.2176 21.3287 65.1118 21.58 66.0571 21.58V19.58C65.4823 19.58 64.9365 19.4313 64.4041 19.1181L63.3901 20.8419ZM66.0571 21.58C67.0076 21.58 67.9056 21.3464 68.7349 20.8829L67.7593 19.1371C67.2285 19.4336 66.6665 19.58 66.0571 19.58V21.58ZM68.7541 20.8719C69.5948 20.3774 70.2586 19.6844 70.7412 18.8156L68.9929 17.8444C68.6756 18.4156 68.2594 18.8426 67.7401 19.1481L68.7541 20.8719ZM70.7468 18.8055C71.2409 17.8915 71.4671 16.841 71.4671 15.69H69.4671C69.4671 16.579 69.2933 17.2885 68.9874 17.8545L70.7468 18.8055ZM85.7891 10.83V9.83H84.7891V10.83H85.7891ZM86.1791 20.1L85.472 20.8071L85.4992 20.8343L85.5283 20.8593L86.1791 20.1ZM89.5091 20.46H90.5091V19.46H89.5091V20.46ZM89.5091 24V25H90.5091V24H89.5091ZM81.5591 10.83H82.5591V9.83H81.5591V10.83ZM79.5791 10.83H78.5791V11.83H79.5791V10.83ZM79.5791 7.38V6.38H78.5791V7.38H79.5791ZM81.5591 7.38V8.38H82.5591V7.38H81.5591ZM81.5591 3.27V2.27H80.5591V3.27H81.5591ZM85.7891 3.27H86.7891V2.27H85.7891V3.27ZM85.7891 7.38H84.7891V8.38H85.7891V7.38ZM89.5091 7.38H90.5091V6.38H89.5091V7.38ZM89.5091 10.83V11.83H90.5091V10.83H89.5091ZM84.7891 10.83V18.87H86.7891V10.83H84.7891ZM84.7891 18.87C84.7891 19.559 84.9462 20.2813 85.472 20.8071L86.8862 19.3929C86.8854 19.3921 86.8805 19.3871 86.8727 19.3738C86.8647 19.36 86.8525 19.3353 86.8398 19.2953C86.8136 19.2124 86.7891 19.0766 86.7891 18.87H84.7891ZM85.5283 20.8593C86.0821 21.3339 86.84 21.46 87.5591 21.46V19.46C87.297 19.46 87.1113 19.4349 86.9865 19.4024C86.8624 19.37 86.8263 19.3377 86.8299 19.3407L85.5283 20.8593ZM87.5591 21.46H89.5091V19.46H87.5591V21.46ZM88.5091 20.46V24H90.5091V20.46H88.5091ZM89.5091 23H86.8691V25H89.5091V23ZM86.8691 23C85.2462 23 84.214 22.6055 83.5835 21.9928C82.9584 21.3853 82.5591 20.3985 82.5591 18.84H80.5591C80.5591 20.7215 81.0448 22.3146 82.1897 23.4272C83.3292 24.5345 84.952 25 86.8691 25V23ZM82.5591 18.84V10.83H80.5591V18.84H82.5591ZM81.5591 9.83H79.5791V11.83H81.5591V9.83ZM80.5791 10.83V7.38H78.5791V10.83H80.5791ZM79.5791 8.38H81.5591V6.38H79.5791V8.38ZM82.5591 7.38V3.27H80.5591V7.38H82.5591ZM81.5591 4.27H85.7891V2.27H81.5591V4.27ZM84.7891 3.27V7.38H86.7891V3.27H84.7891ZM85.7891 8.38H89.5091V6.38H85.7891V8.38ZM88.5091 7.38V10.83H90.5091V7.38H88.5091ZM89.5091 9.83H85.7891V11.83H89.5091V9.83ZM95.47 3.06V2.06H94.6709L94.4946 2.83938L95.47 3.06ZM99.88 3.06L100.799 3.45392L101.397 2.06H99.88V3.06ZM96.64 10.62V11.62H97.2994L97.5591 11.0139L96.64 10.62ZM93.76 10.62L92.7846 10.3994L92.5085 11.62H93.76V10.62ZM95.47 4.06H99.88V2.06H95.47V4.06ZM98.9608 2.66608L95.7208 10.2261L97.5591 11.0139L100.799 3.45392L98.9608 2.66608ZM96.64 9.62H93.76V11.62H96.64V9.62ZM94.7353 10.8406L96.4453 3.28062L94.4946 2.83938L92.7846 10.3994L94.7353 10.8406ZM107.692 23.55L107.272 24.4575L107.279 24.4607L107.286 24.4638L107.692 23.55ZM105.112 21.54L104.307 22.1339L104.312 22.14L104.316 22.146L105.112 21.54ZM104.092 18.75V17.75H103.031L103.093 18.8087L104.092 18.75ZM108.322 18.75L109.314 18.626L109.204 17.75H108.322V18.75ZM109.252 20.34L108.638 21.1294L108.645 21.1347L108.652 21.14L109.252 20.34ZM113.182 20.49L112.611 19.6691L112.602 19.6751L112.594 19.6813L113.182 20.49ZM113.032 18.06L112.571 18.9478L112.591 18.9578L112.611 18.967L113.032 18.06ZM110.422 17.16L110.679 16.1938L110.668 16.1908L110.657 16.188L110.422 17.16ZM107.362 16.23L106.982 17.1552L106.99 17.1585L107.362 16.23ZM105.322 14.76L104.559 15.407L104.565 15.4136L104.571 15.4201L105.322 14.76ZM105.262 9.57L104.446 8.99079L104.441 8.99801L104.436 9.00532L105.262 9.57ZM107.542 7.77L107.139 6.85466L107.132 6.85773L107.542 7.77ZM115.792 8.61L115.145 9.37293L115.153 9.37929L115.792 8.61ZM117.742 12.6V13.6H118.816L118.739 12.5288L117.742 12.6ZM113.722 12.6L112.726 12.6905L112.808 13.6H113.722V12.6ZM112.882 11.04L112.241 11.8082L112.259 11.8226L112.277 11.8362L112.882 11.04ZM109.162 10.86L108.607 10.0279L108.598 10.0343L108.588 10.0408L109.162 10.86ZM109.402 13.32L108.929 14.2015L108.942 14.2081L108.954 14.2144L109.402 13.32ZM112.012 14.19L111.765 15.1592L111.769 15.1601L112.012 14.19ZM116.992 16.62L116.22 17.2557L116.23 17.2681L116.241 17.2801L116.992 16.62ZM117.892 19.26H118.892V19.2509L118.892 19.2418L117.892 19.26ZM117.082 21.84L116.266 21.2608L116.261 21.268L116.256 21.2753L117.082 21.84ZM114.802 23.64L115.196 24.5592L115.204 24.5553L114.802 23.64ZM111.352 23.27C110.111 23.27 109.032 23.0514 108.098 22.6362L107.286 24.4638C108.511 25.0086 109.873 25.27 111.352 25.27V23.27ZM108.112 22.6425C107.161 22.2022 106.436 21.6287 105.907 20.934L104.316 22.146C105.067 23.1313 106.063 23.8978 107.272 24.4575L108.112 22.6425ZM105.916 20.9461C105.409 20.2584 105.138 19.5135 105.09 18.6913L103.093 18.8087C103.165 20.0265 103.575 21.1416 104.307 22.1339L105.916 20.9461ZM104.092 19.75H108.322V17.75H104.092V19.75ZM107.329 18.874C107.444 19.7944 107.902 20.5575 108.638 21.1294L109.866 19.5506C109.521 19.2825 109.359 18.9856 109.314 18.626L107.329 18.874ZM108.652 21.14C109.413 21.7111 110.324 21.97 111.322 21.97V19.97C110.68 19.97 110.21 19.8089 109.852 19.54L108.652 21.14ZM111.322 21.97C112.238 21.97 113.096 21.7892 113.77 21.2987L112.594 19.6813C112.388 19.8308 112.005 19.97 111.322 19.97V21.97ZM113.753 21.3109C114.444 20.8302 114.872 20.1308 114.872 19.26H112.872C112.872 19.3892 112.84 19.5098 112.611 19.6691L113.753 21.3109ZM114.872 19.26C114.872 18.8076 114.751 18.3673 114.481 17.9815C114.216 17.6038 113.851 17.3378 113.453 17.153L112.611 18.967C112.772 19.0422 112.827 19.1062 112.842 19.1285C112.852 19.1427 112.872 19.1724 112.872 19.26H114.872ZM113.492 17.1722C112.851 16.8397 111.893 16.5173 110.679 16.1938L110.164 18.1262C111.351 18.4427 112.133 18.7203 112.571 18.9478L113.492 17.1722ZM110.657 16.188C109.443 15.8945 108.473 15.5976 107.733 15.3015L106.99 17.1585C107.85 17.5024 108.92 17.8255 110.187 18.132L110.657 16.188ZM107.741 15.3048C107.11 15.0458 106.555 14.6491 106.073 14.0999L104.571 15.4201C105.248 16.1909 106.053 16.7742 106.982 17.1552L107.741 15.3048ZM106.084 14.113C105.718 13.6814 105.482 13.044 105.482 12.09H103.482C103.482 13.376 103.805 14.5186 104.559 15.407L106.084 14.113ZM105.482 12.09C105.482 11.3717 105.681 10.7285 106.087 10.1347L104.436 9.00532C103.803 9.93147 103.482 10.9683 103.482 12.09H105.482ZM106.077 10.1492C106.499 9.55525 107.109 9.06061 107.951 8.68227L107.132 6.85773C106.015 7.35939 105.104 8.06474 104.446 8.99079L106.077 10.1492ZM107.944 8.68531C108.792 8.3123 109.82 8.11 111.052 8.11V6.11C109.604 6.11 108.291 6.3477 107.139 6.85468L107.944 8.68531ZM111.052 8.11C112.863 8.11 114.192 8.56477 115.145 9.3729L116.438 7.8471C115.032 6.65523 113.201 6.11 111.052 6.11V8.11ZM115.153 9.37929C116.101 10.1672 116.642 11.2336 116.744 12.6712L118.739 12.5288C118.602 10.6064 117.842 9.01284 116.431 7.84071L115.153 9.37929ZM117.742 11.6H113.722V13.6H117.742V11.6ZM114.718 12.5095C114.634 11.5872 114.224 10.8041 113.487 10.2438L112.277 11.8362C112.539 12.0359 112.69 12.2928 112.726 12.6905L114.718 12.5095ZM113.522 10.2718C112.813 9.68066 111.912 9.44 110.932 9.44V11.44C111.592 11.44 111.991 11.5993 112.241 11.8082L113.522 10.2718ZM110.932 9.44C110.068 9.44 109.255 9.59606 108.607 10.0279L109.716 11.692C109.909 11.5639 110.276 11.44 110.932 11.44V9.44ZM108.588 10.0408C107.913 10.5132 107.562 11.213 107.562 12.03H109.562C109.562 11.847 109.61 11.7668 109.735 11.6792L108.588 10.0408ZM107.562 12.03C107.562 12.4853 107.678 12.926 107.934 13.3182C108.185 13.7038 108.536 13.9907 108.929 14.2015L109.874 12.4385C109.707 12.3493 109.639 12.2712 109.61 12.2268C109.585 12.189 109.562 12.1347 109.562 12.03H107.562ZM108.954 14.2144C109.613 14.5439 110.568 14.8548 111.765 15.1592L112.258 13.2208C111.095 12.9252 110.31 12.6561 109.849 12.4256L108.954 14.2144ZM111.769 15.1601C112.942 15.4533 113.882 15.7497 114.602 16.0452L115.361 14.1948C114.521 13.8503 113.481 13.5267 112.254 13.2199L111.769 15.1601ZM114.602 16.0452C115.223 16.2997 115.76 16.6972 116.22 17.2557L117.764 15.9843C117.104 15.1828 116.301 14.5803 115.361 14.1948L114.602 16.0452ZM116.241 17.2801C116.628 17.721 116.875 18.3534 116.892 19.2782L118.892 19.2418C118.868 17.9666 118.515 16.839 117.743 15.9599L116.241 17.2801ZM116.892 19.26C116.892 20.019 116.683 20.6753 116.266 21.2608L117.897 22.4192C118.561 21.4847 118.892 20.421 118.892 19.26H116.892ZM116.256 21.2753C115.86 21.8546 115.26 22.3457 114.399 22.7247L115.204 24.5553C116.343 24.0543 117.263 23.3454 117.907 22.4047L116.256 21.2753ZM114.408 22.7209C113.578 23.0764 112.568 23.27 111.352 23.27V25.27C112.776 25.27 114.065 25.0436 115.196 24.5591L114.408 22.7209ZM27.5937 35.03L26.8752 35.7256L26.8808 35.7313L27.5937 35.03ZM29.4237 50V51H30.4237V50H29.4237ZM25.2237 50H24.2237V51H25.2237V50ZM24.2337 37.79L23.4964 38.4658L23.5061 38.476L24.2337 37.79ZM18.7737 37.79L18.0467 37.1034L18.0461 37.104L18.7737 37.79ZM17.7837 50V51H18.7837V50H17.7837ZM13.5837 50H12.5837V51H13.5837V50ZM13.5837 33.38V32.38H12.5837V33.38H13.5837ZM17.7837 33.38H18.7837V32.38H17.7837V33.38ZM17.7837 35.45H16.7837V38.3645L18.573 36.0639L17.7837 35.45ZM19.9137 33.77L20.3354 34.6768L20.3444 34.6725L19.9137 33.77ZM22.7937 34.14C24.5411 34.14 25.8687 34.686 26.8753 35.7256L28.3121 34.3344C26.8787 32.854 25.0062 32.14 22.7937 32.14V34.14ZM26.8808 35.7313C27.8681 36.7348 28.4237 38.1937 28.4237 40.25H30.4237C30.4237 37.8263 29.7592 35.8052 28.3065 34.3287L26.8808 35.7313ZM28.4237 40.25V50H30.4237V40.25H28.4237ZM29.4237 49H25.2237V51H29.4237V49ZM26.2237 50V40.82H24.2237V50H26.2237ZM26.2237 40.82C26.2237 39.3411 25.8526 38.0494 24.9613 37.104L23.5061 38.476C23.9347 38.9306 24.2237 39.6589 24.2237 40.82H26.2237ZM24.9708 37.1143C24.0893 36.1526 22.9027 35.71 21.5337 35.71V37.71C22.4447 37.71 23.058 37.9874 23.4965 38.4657L24.9708 37.1143ZM21.5337 35.71C20.1498 35.71 18.9481 36.1489 18.0467 37.1034L19.5007 38.4766C19.9592 37.9911 20.5975 37.71 21.5337 37.71V35.71ZM18.0461 37.104C17.1547 38.0494 16.7837 39.3411 16.7837 40.82H18.7837C18.7837 39.6589 19.0726 38.9306 19.5013 38.476L18.0461 37.104ZM16.7837 40.82V50H18.7837V40.82H16.7837ZM17.7837 49H13.5837V51H17.7837V49ZM14.5837 50V33.38H12.5837V50H14.5837ZM13.5837 34.38H17.7837V32.38H13.5837V34.38ZM16.7837 33.38V35.45H18.7837V33.38H16.7837ZM18.573 36.0639C19.0315 35.4744 19.6135 35.0125 20.3354 34.6767L19.4919 32.8633C18.4938 33.3275 17.6558 33.9856 16.9943 34.8361L18.573 36.0639ZM20.3444 34.6725C21.081 34.3209 21.8926 34.14 22.7937 34.14V32.14C21.6148 32.14 20.5063 32.3791 19.4829 32.8675L20.3444 34.6725ZM50.8477 42.95V43.95H51.6948L51.8341 43.1144L50.8477 42.95ZM38.6977 42.95V41.95H37.6109L37.7011 43.033L38.6977 42.95ZM39.9577 45.77L39.281 46.5063L39.281 46.5063L39.9577 45.77ZM46.0177 44.78V43.78H45.3955L45.1206 44.3381L46.0177 44.78ZM50.5477 44.78L51.5055 45.0673L51.8917 43.78H50.5477V44.78ZM47.7877 48.74L48.3877 49.54L48.3951 49.5344L47.7877 48.74ZM38.4577 49.22L37.9615 50.0882L37.9696 50.0929L37.9778 50.0974L38.4577 49.22ZM35.4877 46.19L34.6071 46.6641L34.6129 46.6745L35.4877 46.19ZM35.4877 37.16L34.6072 36.6859L34.6072 36.6859L35.4877 37.16ZM38.4277 34.16L38.9133 35.0342L38.9133 35.0342L38.4277 34.16ZM47.0077 34.13L46.5268 35.0068L46.5327 35.01L47.0077 34.13ZM49.9177 37.04L49.0376 37.5149L49.0422 37.5233L49.0468 37.5316L49.9177 37.04ZM46.6177 40.13V41.13H47.6363L47.6175 40.1115L46.6177 40.13ZM45.4477 37.55L44.792 38.305L44.7977 38.31L44.8035 38.3149L45.4477 37.55ZM40.0177 37.52L40.6807 38.2686L40.682 38.2674L40.0177 37.52ZM38.7277 40.13L37.7377 39.9886L37.5746 41.13H38.7277V40.13ZM49.9677 41.33C49.9677 41.8871 49.9304 42.3707 49.8613 42.7856L51.8341 43.1144C51.9249 42.5693 51.9677 41.9729 51.9677 41.33H49.9677ZM50.8477 41.95H38.6977V43.95H50.8477V41.95ZM37.7011 43.033C37.8176 44.4308 38.3208 45.6239 39.281 46.5063L40.6343 45.0337C40.1146 44.5561 39.7777 43.8692 39.6942 42.867L37.7011 43.033ZM39.281 46.5063C40.2201 47.3692 41.3775 47.79 42.6877 47.79V45.79C41.8378 45.79 41.1752 45.5308 40.6343 45.0337L39.281 46.5063ZM42.6877 47.79C43.6126 47.79 44.467 47.5903 45.2069 47.1436C45.9495 46.6954 46.5134 46.0368 46.9147 45.2218L45.1206 44.3381C44.8619 44.8632 44.5408 45.2096 44.1734 45.4314C43.8033 45.6547 43.3227 45.79 42.6877 45.79V47.79ZM46.0177 45.78H50.5477V43.78H46.0177V45.78ZM49.5898 44.4927C49.1719 45.8857 48.3774 47.0301 47.1802 47.9456L48.3951 49.5344C49.9179 48.3699 50.9634 46.8743 51.5055 45.0673L49.5898 44.4927ZM47.1877 47.94C46.0282 48.8096 44.5783 49.27 42.7777 49.27V51.27C44.937 51.27 46.8271 50.7104 48.3877 49.54L47.1877 47.94ZM42.7777 49.27C41.3287 49.27 40.0564 48.9546 38.9375 48.3426L37.9778 50.0974C39.4189 50.8854 41.0266 51.27 42.7777 51.27V49.27ZM38.9538 48.3518C37.8567 47.7249 36.996 46.8494 36.3624 45.7055L34.6129 46.6745C35.4193 48.1306 36.5386 49.2751 37.9615 50.0882L38.9538 48.3518ZM36.3681 45.7159C35.7577 44.5823 35.4377 43.2498 35.4377 41.69H33.4377C33.4377 43.5302 33.8176 45.1977 34.6072 46.6641L36.3681 45.7159ZM35.4377 41.69C35.4377 40.1081 35.7586 38.766 36.3681 37.6341L34.6072 36.6859C33.8167 38.154 33.4377 39.8319 33.4377 41.69H35.4377ZM36.3681 37.6341C36.9798 36.4981 37.8247 35.6389 38.9133 35.0342L37.942 33.2858C36.5106 34.0811 35.3955 35.2219 34.6072 36.6859L36.3681 37.6341ZM38.9133 35.0342C40.0053 34.4275 41.2839 34.11 42.7777 34.11V32.11C40.9915 32.11 39.37 32.4925 37.942 33.2858L38.9133 35.0342ZM42.7777 34.11C44.2096 34.11 45.4508 34.4168 46.5268 35.0068L47.4885 33.2532C46.0845 32.4832 44.5057 32.11 42.7777 32.11V34.11ZM46.5327 35.01C47.6211 35.5974 48.4503 36.4266 49.0376 37.5149L50.7977 36.5651C50.025 35.1334 48.9142 34.0226 47.4826 33.25L46.5327 35.01ZM49.0468 37.5316C49.6511 38.6019 49.9677 39.8582 49.9677 41.33H51.9677C51.9677 39.5618 51.5843 37.9581 50.7885 36.5484L49.0468 37.5316ZM47.6175 40.1115C47.5927 38.7714 47.0933 37.6284 46.0918 36.7851L44.8035 38.3149C45.322 38.7516 45.6026 39.3286 45.6178 40.1485L47.6175 40.1115ZM46.1033 36.795C45.144 35.9619 43.9745 35.56 42.6577 35.56V37.56C43.5408 37.56 44.2313 37.8181 44.792 38.305L46.1033 36.795ZM42.6577 35.56C41.3939 35.56 40.2716 35.9564 39.3533 36.7726L40.682 38.2674C41.2038 37.8036 41.8414 37.56 42.6577 37.56V35.56ZM39.3546 36.7714C38.4418 37.5799 37.9239 38.6852 37.7377 39.9886L39.7176 40.2714C39.8514 39.3348 40.1935 38.7001 40.6807 38.2686L39.3546 36.7714ZM38.7277 41.13H46.6177V39.13H38.7277V41.13ZM65.3133 50L64.4797 50.5525L64.7764 51H65.3133V50ZM61.8933 44.84L62.7268 44.2875L61.842 42.9525L61.031 44.3336L61.8933 44.84ZM58.8633 50V51H59.4357L59.7256 50.5064L58.8633 50ZM54.3633 50L53.5253 49.4544L52.5189 51H54.3633V50ZM59.7933 41.66L60.6313 42.2056L60.9898 41.655L60.6267 41.1074L59.7933 41.66ZM54.3033 33.38V32.38H52.4404L53.4698 33.9326L54.3033 33.38ZM59.0433 33.38L59.8776 32.8287L59.5811 32.38H59.0433V33.38ZM62.4333 38.51L61.599 39.0613L62.4766 40.3894L63.2921 39.0223L62.4333 38.51ZM65.4933 33.38V32.38H64.9254L64.6345 32.8677L65.4933 33.38ZM69.9933 33.38L70.8281 33.9305L71.8505 32.38H69.9933V33.38ZM64.5333 41.66L63.6985 41.1095L63.3348 41.661L63.6994 42.2119L64.5333 41.66ZM70.0533 50V51H71.9144L70.8872 49.4481L70.0533 50ZM66.1468 49.4475L62.7268 44.2875L61.0597 45.3925L64.4797 50.5525L66.1468 49.4475ZM61.031 44.3336L58.001 49.4936L59.7256 50.5064L62.7556 45.3464L61.031 44.3336ZM58.8633 49H54.3633V51H58.8633V49ZM55.2013 50.5456L60.6313 42.2056L58.9553 41.1144L53.5253 49.4544L55.2013 50.5456ZM60.6267 41.1074L55.1367 32.8274L53.4698 33.9326L58.9598 42.2126L60.6267 41.1074ZM54.3033 34.38H59.0433V32.38H54.3033V34.38ZM58.209 33.9313L61.599 39.0613L63.2676 37.9587L59.8776 32.8287L58.209 33.9313ZM63.2921 39.0223L66.3521 33.8923L64.6345 32.8677L61.5745 37.9977L63.2921 39.0223ZM65.4933 34.38H69.9933V32.38H65.4933V34.38ZM69.1585 32.8295L63.6985 41.1095L65.3681 42.2105L70.8281 33.9305L69.1585 32.8295ZM63.6994 42.2119L69.2194 50.5519L70.8872 49.4481L65.3672 41.1081L63.6994 42.2119ZM70.0533 49H65.3133V51H70.0533V49ZM79.3245 36.83V35.83H78.3245V36.83H79.3245ZM79.7145 46.1L79.0073 46.8071L79.0345 46.8343L79.0637 46.8593L79.7145 46.1ZM83.0445 46.46H84.0445V45.46H83.0445V46.46ZM83.0445 50V51H84.0445V50H83.0445ZM75.0945 36.83H76.0945V35.83H75.0945V36.83ZM73.1145 36.83H72.1145V37.83H73.1145V36.83ZM73.1145 33.38V32.38H72.1145V33.38H73.1145ZM75.0945 33.38V34.38H76.0945V33.38H75.0945ZM75.0945 29.27V28.27H74.0945V29.27H75.0945ZM79.3245 29.27H80.3245V28.27H79.3245V29.27ZM79.3245 33.38H78.3245V34.38H79.3245V33.38ZM83.0445 33.38H84.0445V32.38H83.0445V33.38ZM83.0445 36.83V37.83H84.0445V36.83H83.0445ZM78.3245 36.83V44.87H80.3245V36.83H78.3245ZM78.3245 44.87C78.3245 45.559 78.4815 46.2813 79.0073 46.8071L80.4216 45.3929C80.4207 45.3921 80.4158 45.3871 80.4081 45.3738C80.4 45.36 80.3879 45.3353 80.3752 45.2953C80.3489 45.2124 80.3245 45.0766 80.3245 44.87H78.3245ZM79.0637 46.8593C79.6174 47.3339 80.3753 47.46 81.0945 47.46V45.46C80.8323 45.46 80.6467 45.4349 80.5219 45.4024C80.3978 45.37 80.3616 45.3377 80.3652 45.3407L79.0637 46.8593ZM81.0945 47.46H83.0445V45.46H81.0945V47.46ZM82.0445 46.46V50H84.0445V46.46H82.0445ZM83.0445 49H80.4045V51H83.0445V49ZM80.4045 49C78.7815 49 77.7493 48.6055 77.1189 47.9928C76.4937 47.3853 76.0945 46.3985 76.0945 44.84H74.0945C74.0945 46.7215 74.5802 48.3146 75.7251 49.4272C76.8646 50.5345 78.4874 51 80.4045 51V49ZM76.0945 44.84V36.83H74.0945V44.84H76.0945ZM75.0945 35.83H73.1145V37.83H75.0945V35.83ZM74.1145 36.83V33.38H72.1145V36.83H74.1145ZM73.1145 34.38H75.0945V32.38H73.1145V34.38ZM76.0945 33.38V29.27H74.0945V33.38H76.0945ZM75.0945 30.27H79.3245V28.27H75.0945V30.27ZM78.3245 29.27V33.38H80.3245V29.27H78.3245ZM79.3245 34.38H83.0445V32.38H79.3245V34.38ZM82.0445 33.38V36.83H84.0445V33.38H82.0445ZM83.0445 35.83H79.3245V37.83H83.0445V35.83ZM108.274 30.05L107.603 30.7915L107.609 30.7971L107.615 30.8026L108.274 30.05ZM108.304 39.2L108.933 39.9773L108.94 39.9712L108.304 39.2ZM103.294 40.73V39.73H102.344L102.295 40.6781L103.294 40.73ZM103.174 43.04V44.04H104.123L104.172 43.0919L103.174 43.04ZM99.4838 43.04L98.4842 43.0694L98.5127 44.04H99.4838V43.04ZM99.3338 37.94V36.94H98.3039L98.3342 37.9694L99.3338 37.94ZM104.704 37.25L104.264 36.3518L104.264 36.3518L104.704 37.25ZM105.334 32.63L104.613 33.3231L104.62 33.3302L104.627 33.3371L105.334 32.63ZM101.104 32.6L100.411 31.8792L100.404 31.886L100.397 31.8929L101.104 32.6ZM100.354 34.67V35.67H101.354V34.67H100.354ZM96.3938 34.67L95.3939 34.6864L95.41 35.67H96.3938V34.67ZM97.1738 31.4L98.0453 31.8903L98.0453 31.8903L97.1738 31.4ZM99.5438 29.15L99.0898 28.2589L99.0829 28.2625L99.5438 29.15ZM99.4238 49.52L98.7166 50.2271L98.7314 50.2418L98.7467 50.2559L99.4238 49.52ZM99.4238 46.01L100.116 46.732L100.116 46.7314L99.4238 46.01ZM103.144 46.01L102.437 46.7171L102.444 46.7246L102.452 46.732L103.144 46.01ZM103.144 49.52L103.836 50.242L103.843 50.2346L103.851 50.2271L103.144 49.52ZM103.264 29.34C105.154 29.34 106.566 29.8532 107.603 30.7915L108.945 29.3085C107.462 27.9668 105.533 27.34 103.264 27.34V29.34ZM107.615 30.8026C108.642 31.7008 109.194 32.9561 109.194 34.7H111.194C111.194 32.4839 110.466 30.6392 108.932 29.2974L107.615 30.8026ZM109.194 34.7C109.194 36.4274 108.651 37.617 107.667 38.4288L108.94 39.9712C110.477 38.703 111.194 36.8926 111.194 34.7H109.194ZM107.675 38.4228C106.638 39.262 105.211 39.73 103.294 39.73V41.73C105.537 41.73 107.45 41.178 108.933 39.9772L107.675 38.4228ZM102.295 40.6781L102.175 42.9881L104.172 43.0919L104.292 40.7819L102.295 40.6781ZM103.174 42.04H99.4838V44.04H103.174V42.04ZM100.483 43.0106L100.333 37.9106L98.3342 37.9694L98.4842 43.0694L100.483 43.0106ZM99.3338 38.94H100.684V36.94H99.3338V38.94ZM100.684 38.94C102.488 38.94 104.005 38.7055 105.143 38.1482L104.264 36.3518C103.523 36.7145 102.36 36.94 100.684 36.94V38.94ZM105.143 38.1482C105.779 37.837 106.291 37.3764 106.634 36.7633C106.972 36.1593 107.114 35.4661 107.114 34.73H105.114C105.114 35.2139 105.021 35.5507 104.889 35.7867C104.762 36.0136 104.568 36.203 104.264 36.3518L105.143 38.1482ZM107.114 34.73C107.114 33.6407 106.785 32.6666 106.041 31.9229L104.627 33.3371C104.923 33.6334 105.114 34.0593 105.114 34.73H107.114ZM106.055 31.9369C105.326 31.179 104.352 30.85 103.264 30.85V32.85C103.936 32.85 104.342 33.041 104.613 33.3231L106.055 31.9369ZM103.264 30.85C102.16 30.85 101.164 31.1545 100.411 31.8792L101.797 33.3208C102.083 33.0455 102.528 32.85 103.264 32.85V30.85ZM100.397 31.8929C99.6656 32.6239 99.3538 33.5934 99.3538 34.67H101.354C101.354 33.9866 101.542 33.5761 101.811 33.3071L100.397 31.8929ZM100.354 33.67H96.3938V35.67H100.354V33.67ZM97.3936 34.6536C97.3762 33.5913 97.6014 32.6795 98.0453 31.8903L96.3022 30.9097C95.6661 32.0405 95.3713 33.3087 95.3939 34.6864L97.3936 34.6536ZM98.0453 31.8903C98.4838 31.1108 99.1256 30.4939 100.005 30.0375L99.0829 28.2625C97.8819 28.8861 96.9437 29.7692 96.3022 30.9097L98.0453 31.8903ZM99.9977 30.041C100.892 29.5853 101.971 29.34 103.264 29.34V27.34C101.716 27.34 100.315 27.6347 99.0898 28.259L99.9977 30.041ZM101.314 49.21C100.772 49.21 100.394 49.0537 100.101 48.7841L98.7467 50.2559C99.4536 50.9063 100.335 51.21 101.314 51.21V49.21ZM100.131 48.8129C99.8448 48.5269 99.7038 48.194 99.7038 47.75H97.7038C97.7038 48.706 98.0427 49.5531 98.7166 50.2271L100.131 48.8129ZM99.7038 47.75C99.7038 47.3065 99.8438 46.9925 100.116 46.732L98.7318 45.288C98.0437 45.9475 97.7038 46.7935 97.7038 47.75H99.7038ZM100.116 46.7314C100.411 46.4482 100.785 46.29 101.314 46.29V44.29C100.323 44.29 99.4362 44.6118 98.7312 45.2886L100.116 46.7314ZM101.314 46.29C101.815 46.29 102.162 46.4425 102.437 46.7171L103.851 45.3029C103.165 44.6175 102.293 44.29 101.314 44.29V46.29ZM102.452 46.732C102.724 46.9925 102.864 47.3065 102.864 47.75H104.864C104.864 46.7935 104.524 45.9475 103.836 45.288L102.452 46.732ZM102.864 47.75C102.864 48.194 102.723 48.5269 102.437 48.8129L103.851 50.2271C104.525 49.5531 104.864 48.706 104.864 47.75H102.864ZM102.452 48.798C102.18 49.0588 101.828 49.21 101.314 49.21V51.21C102.28 51.21 103.148 50.9012 103.836 50.242L102.452 48.798Z" fill="black"/>
</svg>
