<svg width="1182" height="380" viewBox="0 0 1182 380" fill="none" xmlns="http://www.w3.org/2000/svg">
<mask id="path-1-inside-1" fill="white">
<path fill-rule="evenodd" clip-rule="evenodd" d="M0 380H1181.7C1097.25 158.868 864.611 0 590.849 0C317.087 0 84.4487 158.868 0 380Z"/>
</mask>
<path fill-rule="evenodd" clip-rule="evenodd" d="M0 380H1181.7C1097.25 158.868 864.611 0 590.849 0C317.087 0 84.4487 158.868 0 380Z" fill="#F8F8F8"/>
<path d="M0 380L-4.67098 378.216L-7.26166 385H0V380ZM1181.7 380V385H1188.96L1186.37 378.216L1181.7 380ZM0 385H1181.7V375H0V385ZM590.849 5C862.731 5 1093.38 162.763 1177.03 381.784L1186.37 378.216C1101.11 154.972 866.49 -5 590.849 -5V5ZM4.67098 381.784C88.3132 162.763 318.966 5 590.849 5V-5C315.207 -5 80.5842 154.972 -4.67098 378.216L4.67098 381.784Z" fill="black" mask="url(#path-1-inside-1)"/>
<path d="M567.67 77.4291C559.025 62.144 552.114 56.6851 536.441 43.7322C520.768 30.7793 553.921 27.7182 568.473 23.6983C611.683 11.7614 642.322 21.9157 689.033 17.2953C729.405 13.3019 790.432 27.0154 790.248 39.32C790.064 51.6245 775.534 61.2529 750.937 69.0904C726.341 76.9279 693.618 67.0321 660.58 78.8172C622.139 92.5298 602.519 141.95 578.087 138.712C553.656 135.474 579.869 99.0002 567.67 77.4291Z" fill="#E0E0E0" stroke="black" stroke-width="5"/>
<path d="M443.922 57.1596C431.273 48.9313 375.544 36.4464 390.499 32.5C405.454 28.5537 433.999 20.4727 454.999 16.1327C466.754 13.7035 483.575 9.0718 484.693 14.4253C485.812 19.7789 469.043 46.6393 473.036 58.2278C477.029 69.8162 514.133 81.1503 501.656 90.0913C489.179 99.0322 396.97 96.4663 402.322 86.4467C407.675 76.427 456.571 65.3878 443.922 57.1596Z" fill="#E0E0E0" stroke="black" stroke-width="5"/>
<path fill-rule="evenodd" clip-rule="evenodd" d="M4.6123 377H256.957C257.199 373.891 257.845 371.456 259.107 370.075C260.475 368.578 263.808 363.912 268.62 357.175C287.434 330.832 328.865 272.824 363.887 248.796C388.375 231.996 420.822 218.763 448.096 207.64C477.344 195.713 500.643 186.211 501.802 177.336C504.04 160.186 437.322 107.917 405.53 111.593C386.66 113.774 366.528 132.643 349.909 148.219L349.909 148.219C338.529 158.885 328.796 168.007 322.244 169.169C306.124 172.028 274.779 134.868 287.317 117.309C293.26 108.986 319.327 99.5615 343.386 90.8627C370.082 81.2107 394.306 72.4523 385.828 67.083C369.708 56.8745 356.217 44.5577 356.217 44.5577C356.217 44.5577 298 61 228 104.126C169.834 139.961 112.286 200.903 75.0886 249.905C40.6002 295.337 23.4742 334.201 6.8868 371.842L6.88671 371.842L6.88592 371.844C6.12746 373.565 5.37012 375.283 4.6123 377Z" fill="#E0E0E0"/>
<path d="M4.6123 377L2.32527 375.99L0.775799 379.5H4.6123V377ZM256.957 377V379.5H259.269L259.449 377.194L256.957 377ZM259.107 370.075L257.262 368.388L257.262 368.388L259.107 370.075ZM268.62 357.175L270.654 358.628L270.654 358.628L268.62 357.175ZM363.887 248.796L365.301 250.858L365.301 250.858L363.887 248.796ZM448.096 207.64L447.152 205.325L447.152 205.325L448.096 207.64ZM501.802 177.336L504.28 177.66L504.28 177.66L501.802 177.336ZM405.53 111.593L405.243 109.109L405.243 109.109L405.53 111.593ZM349.909 148.219L348.2 146.395L348.117 146.472L348.041 146.558L349.909 148.219ZM349.909 148.219L351.619 150.043L351.702 149.965L351.778 149.88L349.909 148.219ZM322.244 169.169L321.807 166.708L322.244 169.169ZM287.317 117.309L289.352 118.762L289.352 118.762L287.317 117.309ZM343.386 90.8627L344.236 93.2137L344.236 93.2137L343.386 90.8627ZM385.828 67.083L387.165 64.9709L387.165 64.9709L385.828 67.083ZM356.217 44.5577L357.903 42.7115L356.876 41.7739L355.538 42.1519L356.217 44.5577ZM228 104.126L226.689 101.997L228 104.126ZM75.0886 249.905L73.0974 248.393L73.0974 248.393L75.0886 249.905ZM6.8868 371.842L9.09459 373.015L9.13758 372.934L9.17452 372.85L6.8868 371.842ZM6.88671 371.842L4.67892 370.669L4.63148 370.758L4.5914 370.851L6.88671 371.842ZM6.88592 371.844L9.17363 372.852L9.17746 372.843L9.18122 372.834L6.88592 371.844ZM4.6123 379.5H256.957V374.5H4.6123V379.5ZM259.449 377.194C259.686 374.153 260.299 372.476 260.953 371.761L257.262 368.388C255.39 370.436 254.712 373.63 254.464 376.806L259.449 377.194ZM260.953 371.761C262.454 370.119 265.917 365.259 270.654 358.628L266.585 355.722C261.698 362.564 258.497 367.037 257.262 368.388L260.953 371.761ZM270.654 358.628C280.063 345.454 295.08 324.43 312.107 303.704C329.171 282.935 348.099 262.66 365.301 250.858L362.472 246.735C344.653 258.96 325.355 279.704 308.244 300.53C291.097 321.402 275.991 342.553 266.585 355.722L270.654 358.628ZM365.301 250.858C389.525 234.239 421.703 221.104 449.04 209.955L447.152 205.325C419.941 216.423 387.225 229.753 362.472 246.735L365.301 250.858ZM449.04 209.955C463.624 204.008 476.882 198.603 486.63 193.564C491.501 191.046 495.621 188.557 498.63 186.062C501.561 183.632 503.864 180.849 504.28 177.66L499.323 177.013C499.16 178.26 498.115 179.994 495.439 182.213C492.839 184.369 489.089 186.665 484.334 189.122C474.831 194.035 461.816 199.345 447.152 205.325L449.04 209.955ZM504.28 177.66C504.664 174.722 503.56 171.452 501.806 168.239C500.012 164.951 497.334 161.36 494.044 157.652C487.457 150.228 478.187 142.083 467.893 134.63C457.596 127.174 446.189 120.349 435.297 115.61C424.481 110.904 413.854 108.114 405.243 109.109L405.817 114.076C413.101 113.234 422.737 115.599 433.302 120.195C443.791 124.759 454.884 131.384 464.961 138.68C475.042 145.978 484.018 153.886 490.304 160.971C493.451 164.517 495.867 167.795 497.417 170.634C499.008 173.548 499.499 175.662 499.323 177.013L504.28 177.66ZM405.243 109.109C395.154 110.275 384.974 115.851 375.398 122.866C365.786 129.908 356.487 138.627 348.2 146.395L351.619 150.043C359.95 142.234 369.027 133.731 378.353 126.899C387.715 120.041 397.036 115.091 405.817 114.076L405.243 109.109ZM348.041 146.558L348.041 146.558L351.778 149.88L351.778 149.88L348.041 146.558ZM348.2 146.395C342.487 151.749 337.284 156.623 332.699 160.31C328.009 164.081 324.385 166.251 321.807 166.708L322.68 171.631C326.654 170.926 331.173 167.953 335.832 164.206C340.597 160.375 345.951 155.355 351.619 150.043L348.2 146.395ZM321.807 166.708C318.745 167.251 314.454 165.907 309.614 162.664C304.876 159.49 300.038 154.775 296.039 149.403C292.035 144.024 288.975 138.126 287.648 132.635C286.32 127.138 286.788 122.353 289.352 118.762L285.283 115.857C281.578 121.045 281.262 127.49 282.788 133.809C284.316 140.135 287.749 146.64 292.028 152.389C296.313 158.144 301.551 163.28 306.831 166.818C312.01 170.288 317.682 172.517 322.68 171.631L321.807 166.708ZM289.352 118.762C290.527 117.116 292.901 115.182 296.487 113.034C300.012 110.921 304.471 108.74 309.559 106.518C319.736 102.073 332.185 97.571 344.236 93.2137L342.536 88.5116C330.528 92.8532 317.914 97.4128 307.558 101.936C302.379 104.198 297.703 106.477 293.917 108.744C290.192 110.976 287.079 113.341 285.283 115.857L289.352 118.762ZM344.236 93.2137C357.528 88.4081 370.411 83.7539 378.894 79.6135C383.047 77.5865 386.55 75.4986 388.417 73.3432C389.366 72.2474 390.239 70.734 390.014 68.9392C389.784 67.1094 388.525 65.8317 387.165 64.9709L384.49 69.1951C385.25 69.6765 385.089 69.8471 385.053 69.5617C385.021 69.3113 385.184 69.4385 384.638 70.0696C383.513 71.3682 380.881 73.0799 376.701 75.1202C368.517 79.1143 355.94 83.6653 342.536 88.5116L344.236 93.2137ZM387.165 64.9709C379.214 59.9353 371.892 54.3672 366.549 50.048C363.881 47.8908 361.713 46.0508 360.214 44.7524C359.465 44.1033 358.884 43.5899 358.492 43.2404C358.295 43.0656 358.147 42.9318 358.048 42.8424C357.998 42.7978 357.961 42.7642 357.937 42.7423C357.925 42.7313 357.916 42.7232 357.91 42.718C357.907 42.7155 357.905 42.7136 357.904 42.7125C357.903 42.712 357.903 42.7116 357.903 42.7114C357.903 42.7114 357.903 42.7114 357.903 42.7113C357.903 42.7114 357.903 42.7115 356.217 44.5577C354.532 46.404 354.532 46.4042 354.532 46.4044C354.532 46.4046 354.533 46.4049 354.533 46.4052C354.534 46.4057 354.534 46.4065 354.535 46.4074C354.538 46.4093 354.54 46.412 354.544 46.4154C354.552 46.4221 354.562 46.4319 354.576 46.4445C354.604 46.4698 354.645 46.5066 354.698 46.5547C354.804 46.6508 354.961 46.7915 355.165 46.9735C355.574 47.3373 356.172 47.866 356.94 48.5311C358.475 49.8611 360.687 51.7383 363.406 53.9364C368.838 58.3277 376.322 64.0222 384.49 69.1951L387.165 64.9709ZM356.217 44.5577C355.538 42.1519 355.537 42.152 355.536 42.1523C355.536 42.1525 355.535 42.1528 355.533 42.1531C355.531 42.1538 355.528 42.1547 355.524 42.1559C355.515 42.1582 355.504 42.1616 355.488 42.1659C355.458 42.1747 355.413 42.1875 355.355 42.2044C355.238 42.2382 355.065 42.2884 354.838 42.3553C354.385 42.4891 353.716 42.6898 352.841 42.9598C351.093 43.4998 348.524 44.3174 345.226 45.4324C338.631 47.6624 329.118 51.083 317.415 55.8546C294.01 65.3968 261.828 80.3484 226.689 101.997L229.311 106.254C264.172 84.7775 296.099 69.945 319.303 60.4846C330.903 55.7549 340.32 52.3695 346.828 50.169C350.082 49.0687 352.608 48.2648 354.317 47.7372C355.171 47.4734 355.821 47.2787 356.254 47.1506C356.471 47.0865 356.634 47.0391 356.742 47.0081C356.796 46.9926 356.835 46.9811 356.861 46.9737C356.874 46.97 356.884 46.9673 356.89 46.9656C356.893 46.9648 356.895 46.9642 356.896 46.9639C356.896 46.9637 356.897 46.9637 356.897 46.9636C356.897 46.9636 356.897 46.9636 356.217 44.5577ZM226.689 101.997C168.157 138.058 110.392 199.264 73.0974 248.393L77.0799 251.416C114.18 202.543 171.51 141.865 229.311 106.254L226.689 101.997ZM73.0974 248.393C38.4178 294.078 21.194 333.176 4.59908 370.834L9.17452 372.85C25.7544 335.226 42.7826 296.597 77.0799 251.416L73.0974 248.393ZM4.67901 370.669L4.67892 370.669L9.09449 373.015L9.09459 373.015L4.67901 370.669ZM4.5914 370.851L4.59061 370.853L9.18122 372.834L9.18201 372.833L4.5914 370.851ZM4.5982 370.836C3.83968 372.557 3.08269 374.275 2.32527 375.99L6.89934 378.01C7.65756 376.292 8.41524 374.573 9.17363 372.852L4.5982 370.836Z" fill="black"/>
<path fill-rule="evenodd" clip-rule="evenodd" d="M817.849 70C834.37 64.7884 856.918 72.9353 877.888 80.5122C889.011 84.5311 899.69 88.3897 908.791 90.0096C959.919 99.1097 1027.73 168.227 1027.73 168.227C1027.73 168.227 1050.61 187.308 1075.59 215.594C1104.74 248.594 1119.18 268.825 1140.97 306.247C1152.97 326.852 1165.31 354.601 1174.58 377.001H637.238C657.802 356.702 674.536 346.532 706.179 335.239C713.356 332.678 721.079 329.244 729.054 325.698C754.939 314.188 783.488 301.494 804.689 313.597C813.532 318.645 814.618 323.474 815.794 328.709C816.849 333.403 817.978 338.424 824.839 344.223C843.855 360.293 876.621 359.785 912.476 359.229C924.98 359.036 937.861 358.836 950.664 359.331C959.654 359.679 970.814 362.394 981.774 365.06L981.774 365.061C999.783 369.441 1017.25 373.69 1023.65 367.09C1033.95 356.473 1031.43 343.263 1023.65 331.156C1016.16 319.499 1008.88 315.639 990.964 313.597C983.175 312.709 976.118 309.557 968.802 306.288C959.293 302.04 949.346 297.596 936.783 297.672C931.897 297.701 928.834 298.521 925.883 299.31C920.196 300.832 914.925 302.242 897.827 297.672C883.683 293.891 879.101 285.145 874.751 276.842C871.114 269.899 867.639 263.265 858.87 260.104C848.344 256.309 847.175 264.392 845.869 273.412C844.787 280.891 843.611 289.016 836.929 291.547C825.978 295.695 818.889 288.701 811.204 281.119C804.789 274.791 797.959 268.053 788.122 267.046C762.205 264.394 739.385 286.745 724.254 301.566C718.28 307.417 713.504 312.095 710.209 313.597C698.567 318.906 673.643 312.855 663.64 297.672C655.355 285.096 656.281 273.15 663.64 260.104C669.09 250.444 681.301 250.771 693.281 251.092C705.551 251.421 717.58 251.743 721.851 241.32C725.708 231.909 726.519 224.695 721.851 215.594C717.551 207.211 708.342 207.577 698.653 207.963C689.857 208.312 680.664 208.678 674.387 202.527C661.09 189.498 654.984 173.97 663.64 158.018C669.783 146.698 678.001 138.579 691.85 138.417C701.065 138.309 704.38 145.166 707.903 152.451C711.003 158.863 714.265 165.608 721.851 168.226C734.608 172.629 743.711 171.795 756.778 168.226C758.694 167.703 760.695 167.203 762.721 166.697C775.825 163.424 789.915 159.906 788.122 148.217C787.375 143.347 781.055 142.181 775.018 141.068C767.938 139.762 761.248 138.528 764.39 131.475C770.211 118.408 787.889 79.4506 817.849 70Z" fill="#E0E0E0"/>
<path d="M877.888 80.5122L878.738 78.161L878.738 78.161L877.888 80.5122ZM817.849 70L818.601 72.3842L818.601 72.3842L817.849 70ZM908.791 90.0096L908.353 92.4709L908.353 92.4709L908.791 90.0096ZM1027.73 168.227L1025.94 169.978L1026.03 170.067L1026.12 170.147L1027.73 168.227ZM1075.59 215.594L1077.47 213.94L1077.47 213.94L1075.59 215.594ZM1140.97 306.247L1143.13 304.989L1143.13 304.989L1140.97 306.247ZM1174.58 377.001V379.501H1178.32L1176.89 376.044L1174.58 377.001ZM637.238 377.001L635.482 375.221L631.146 379.501H637.238V377.001ZM706.179 335.239L705.339 332.885L705.339 332.885L706.179 335.239ZM729.054 325.698L728.038 323.413L728.038 323.413L729.054 325.698ZM804.689 313.597L805.929 311.426L805.929 311.426L804.689 313.597ZM815.794 328.709L818.233 328.16L818.233 328.16L815.794 328.709ZM824.839 344.223L826.453 342.313L826.453 342.313L824.839 344.223ZM912.476 359.229L912.437 356.73L912.437 356.73L912.476 359.229ZM950.664 359.331L950.761 356.833L950.761 356.833L950.664 359.331ZM981.774 365.06L981.183 367.49L981.233 367.502L981.283 367.512L981.774 365.06ZM981.774 365.061L982.365 362.631L982.315 362.619L982.264 362.609L981.774 365.061ZM1023.65 367.09L1021.86 365.349L1021.86 365.349L1023.65 367.09ZM1023.65 331.156L1021.55 332.507L1021.55 332.507L1023.65 331.156ZM990.964 313.597L991.247 311.113L991.247 311.113L990.964 313.597ZM968.802 306.288L969.821 304.005L969.821 304.005L968.802 306.288ZM936.783 297.672L936.798 300.172L936.798 300.172L936.783 297.672ZM925.883 299.31L926.529 301.725L926.529 301.725L925.883 299.31ZM897.827 297.672L898.472 295.257L898.472 295.257L897.827 297.672ZM874.751 276.842L876.966 275.682L876.966 275.682L874.751 276.842ZM858.87 260.104L858.022 262.456L858.022 262.456L858.87 260.104ZM845.869 273.412L848.343 273.77L848.343 273.77L845.869 273.412ZM836.929 291.547L837.815 293.885L837.815 293.885L836.929 291.547ZM811.204 281.119L809.449 282.899L809.449 282.899L811.204 281.119ZM788.122 267.046L787.867 269.533L787.867 269.533L788.122 267.046ZM724.254 301.566L726.003 303.352L726.003 303.352L724.254 301.566ZM710.209 313.597L709.172 311.323L709.172 311.323L710.209 313.597ZM663.64 297.672L665.728 296.296L663.64 297.672ZM663.64 260.104L661.463 258.876L661.463 258.876L663.64 260.104ZM693.281 251.092L693.348 248.593L693.348 248.593L693.281 251.092ZM721.851 241.32L724.164 242.268L724.164 242.268L721.851 241.32ZM721.851 215.594L724.076 214.453L724.076 214.453L721.851 215.594ZM698.653 207.963L698.554 205.465L698.554 205.465L698.653 207.963ZM674.387 202.527L676.137 200.742L676.137 200.742L674.387 202.527ZM663.64 158.018L661.443 156.825L661.443 156.825L663.64 158.018ZM691.85 138.417L691.821 135.917L691.821 135.917L691.85 138.417ZM707.903 152.451L705.652 153.539L705.652 153.539L707.903 152.451ZM721.851 168.226L722.667 165.863L722.667 165.863L721.851 168.226ZM756.778 168.226L757.436 170.638L757.436 170.638L756.778 168.226ZM762.721 166.697L762.115 164.272L762.115 164.272L762.721 166.697ZM788.122 148.217L785.651 148.596L785.651 148.596L788.122 148.217ZM775.018 141.068L775.471 138.609L775.471 138.609L775.018 141.068ZM764.39 131.475L762.106 130.458L762.106 130.458L764.39 131.475ZM878.738 78.161C868.286 74.3845 857.255 70.395 846.751 68.0219C836.275 65.655 825.987 64.8114 817.097 67.6158L818.601 72.3842C826.232 69.977 835.478 70.601 845.649 72.8989C855.792 75.1906 866.521 79.063 877.039 82.8635L878.738 78.161ZM909.229 87.5482C900.384 85.9739 889.927 82.2038 878.738 78.161L877.039 82.8635C888.095 86.8584 898.997 90.8055 908.353 92.4709L909.229 87.5482ZM1027.73 168.227C1029.51 166.476 1029.51 166.476 1029.51 166.475C1029.51 166.474 1029.51 166.473 1029.51 166.472C1029.5 166.469 1029.5 166.466 1029.5 166.461C1029.49 166.452 1029.47 166.439 1029.46 166.422C1029.42 166.387 1029.37 166.336 1029.31 166.269C1029.17 166.135 1028.98 165.937 1028.72 165.68C1028.2 165.165 1027.44 164.411 1026.46 163.45C1024.49 161.529 1021.63 158.778 1018.03 155.45C1010.84 148.797 1000.72 139.827 988.98 130.568C965.63 112.145 935.466 92.218 909.229 87.5482L908.353 92.4709C933.245 96.9013 962.548 116.083 985.883 134.493C997.49 143.651 1007.51 152.53 1014.63 159.12C1018.19 162.414 1021.03 165.134 1022.97 167.028C1023.94 167.975 1024.68 168.715 1025.19 169.217C1025.44 169.468 1025.63 169.66 1025.75 169.788C1025.82 169.852 1025.86 169.9 1025.9 169.932C1025.91 169.948 1025.92 169.96 1025.93 169.967C1025.93 169.971 1025.94 169.974 1025.94 169.976C1025.94 169.977 1025.94 169.977 1025.94 169.977C1025.94 169.978 1025.94 169.978 1027.73 168.227ZM1077.47 213.94C1064.91 199.724 1052.89 187.826 1044 179.481C1039.56 175.307 1035.9 172.02 1033.34 169.773C1032.07 168.65 1031.07 167.786 1030.38 167.202C1030.04 166.91 1029.78 166.688 1029.6 166.538C1029.51 166.463 1029.45 166.406 1029.4 166.367C1029.38 166.348 1029.36 166.333 1029.35 166.323C1029.34 166.318 1029.34 166.314 1029.33 166.312C1029.33 166.31 1029.33 166.309 1029.33 166.308C1029.33 166.308 1029.33 166.308 1029.33 166.307C1029.33 166.307 1029.33 166.307 1027.73 168.227C1026.12 170.147 1026.12 170.147 1026.12 170.147C1026.12 170.147 1026.12 170.147 1026.13 170.147C1026.13 170.148 1026.13 170.148 1026.13 170.149C1026.13 170.151 1026.13 170.154 1026.14 170.159C1026.15 170.167 1026.16 170.18 1026.19 170.198C1026.23 170.233 1026.29 170.287 1026.38 170.358C1026.55 170.502 1026.8 170.717 1027.13 171.002C1027.8 171.572 1028.78 172.42 1030.04 173.527C1032.56 175.742 1036.18 178.993 1040.58 183.126C1049.38 191.393 1061.29 203.178 1073.72 217.249L1077.47 213.94ZM1143.13 304.989C1121.26 267.43 1106.72 247.065 1077.47 213.94L1073.72 217.249C1102.75 250.122 1117.1 270.22 1138.81 307.505L1143.13 304.989ZM1176.89 376.044C1167.61 353.625 1155.22 325.747 1143.13 304.989L1138.81 307.505C1150.72 327.957 1163.01 355.576 1172.27 377.957L1176.89 376.044ZM637.238 379.501H1174.58V374.501H637.238V379.501ZM705.339 332.885C673.406 344.281 656.342 354.629 635.482 375.221L638.994 378.78C659.261 358.774 675.667 348.783 707.019 337.594L705.339 332.885ZM728.038 323.413C720.041 326.969 712.409 330.361 705.339 332.885L707.019 337.594C714.302 334.994 722.116 331.519 730.07 327.982L728.038 323.413ZM805.929 311.426C794.535 304.921 781.35 305.195 768.049 308.36C754.759 311.523 740.931 317.681 728.038 323.413L730.07 327.982C743.063 322.205 756.452 316.26 769.207 313.225C781.952 310.191 793.643 310.17 803.45 315.768L805.929 311.426ZM818.233 328.16C817.654 325.581 817.019 322.673 815.25 319.779C813.454 316.842 810.619 314.104 805.929 311.426L803.45 315.768C807.603 318.139 809.732 320.339 810.984 322.387C812.262 324.478 812.758 326.601 813.355 329.257L818.233 328.16ZM826.453 342.313C823.257 339.612 821.485 337.172 820.379 334.941C819.258 332.677 818.765 330.524 818.233 328.16L813.355 329.257C813.879 331.587 814.478 334.292 815.899 337.161C817.338 340.064 819.56 343.034 823.226 346.132L826.453 342.313ZM912.437 356.73C894.464 357.008 877.49 357.267 862.641 355.479C847.786 353.69 835.414 349.887 826.453 342.313L823.226 346.132C833.28 354.629 846.798 358.607 862.044 360.443C877.296 362.28 894.633 362.006 912.515 361.729L912.437 356.73ZM950.761 356.833C937.878 356.335 924.931 356.536 912.437 356.73L912.515 361.729C925.03 361.535 937.843 361.337 950.568 361.83L950.761 356.833ZM982.365 362.631C971.489 359.986 960.056 357.193 950.761 356.833L950.568 361.83C959.252 362.166 970.139 364.803 981.183 367.49L982.365 362.631ZM982.264 362.609L982.264 362.609L981.283 367.512L981.284 367.512L982.264 362.609ZM1021.86 365.349C1020.76 366.481 1019.05 367.296 1016.54 367.706C1014.03 368.117 1010.93 368.088 1007.33 367.707C1000.11 366.944 991.421 364.834 982.365 362.631L981.183 367.49C990.136 369.668 999.183 371.873 1006.8 372.679C1010.62 373.083 1014.21 373.153 1017.34 372.641C1020.47 372.129 1023.34 371 1025.45 368.831L1021.86 365.349ZM1021.55 332.507C1025.3 338.349 1027.65 344.255 1027.93 349.81C1028.21 355.267 1026.52 360.545 1021.86 365.349L1025.45 368.831C1031.08 363.018 1033.28 356.383 1032.93 349.554C1032.58 342.823 1029.78 336.07 1025.75 329.804L1021.55 332.507ZM990.681 316.081C999.544 317.092 1005.46 318.525 1010.03 320.975C1014.53 323.386 1017.94 326.9 1021.55 332.507L1025.75 329.804C1021.87 323.756 1017.89 319.511 1012.4 316.567C1006.98 313.663 1000.29 312.145 991.247 311.113L990.681 316.081ZM967.782 308.57C975.036 311.811 982.444 315.142 990.681 316.081L991.247 311.113C983.906 310.277 977.2 307.302 969.821 304.005L967.782 308.57ZM936.798 300.172C948.753 300.1 958.24 304.308 967.782 308.57L969.821 304.005C960.346 299.772 949.939 295.093 936.768 295.172L936.798 300.172ZM926.529 301.725C929.427 300.95 932.24 300.199 936.798 300.172L936.768 295.172C931.555 295.203 928.242 296.091 925.237 296.895L926.529 301.725ZM897.181 300.087C905.837 302.401 911.657 303.245 916.117 303.275C920.637 303.306 923.649 302.496 926.529 301.725L925.237 296.895C922.431 297.646 919.963 298.302 916.151 298.276C912.28 298.249 906.915 297.513 898.472 295.257L897.181 300.087ZM872.537 278.002C874.691 282.115 877.067 286.679 880.79 290.661C884.574 294.706 889.667 298.078 897.181 300.087L898.472 295.257C891.843 293.485 887.574 290.594 884.442 287.245C881.252 283.833 879.161 279.873 876.966 275.682L872.537 278.002ZM858.022 262.456C865.773 265.25 868.866 270.996 872.537 278.002L876.966 275.682C873.362 268.802 869.505 261.281 859.718 257.752L858.022 262.456ZM848.343 273.77C848.674 271.489 848.977 269.404 849.406 267.56C849.839 265.701 850.354 264.303 850.996 263.333C851.591 262.434 852.258 261.951 853.135 261.752C854.104 261.532 855.634 261.595 858.022 262.456L859.718 257.752C856.844 256.716 854.28 256.365 852.029 256.876C849.685 257.407 848.004 258.796 846.828 260.571C845.699 262.275 845.019 264.351 844.536 266.427C844.05 268.517 843.718 270.824 843.395 273.053L848.343 273.77ZM837.815 293.885C842.057 292.278 844.419 288.901 845.832 285.234C847.217 281.639 847.812 277.441 848.343 273.77L843.395 273.053C842.844 276.862 842.31 280.466 841.166 283.436C840.05 286.334 838.483 288.285 836.044 289.209L837.815 293.885ZM809.449 282.899C813.221 286.621 817.181 290.557 821.67 292.94C826.344 295.422 831.603 296.237 837.815 293.885L836.044 289.209C831.304 291.004 827.543 290.397 824.014 288.524C820.299 286.551 816.872 283.199 812.96 279.34L809.449 282.899ZM787.867 269.533C796.692 270.436 802.919 276.457 809.449 282.899L812.96 279.34C806.659 273.124 799.227 265.669 788.376 264.559L787.867 269.533ZM726.003 303.352C733.593 295.918 742.914 286.798 753.515 279.844C764.113 272.89 775.715 268.289 787.867 269.533L788.376 264.559C774.612 263.15 761.845 268.399 750.772 275.663C739.7 282.927 730.046 292.393 722.504 299.78L726.003 303.352ZM711.246 315.872C713.265 314.951 715.525 313.178 717.887 311.082C720.295 308.944 723.03 306.264 726.003 303.352L722.504 299.78C719.503 302.719 716.864 305.304 714.567 307.343C712.223 309.423 710.448 310.741 709.172 311.323L711.246 315.872ZM661.553 299.047C666.972 307.273 676.283 312.852 685.575 315.708C694.8 318.544 704.639 318.884 711.246 315.872L709.172 311.323C704.136 313.619 695.693 313.588 687.044 310.929C678.464 308.291 670.311 303.253 665.728 296.296L661.553 299.047ZM661.463 258.876C657.65 265.634 655.4 272.29 655.274 279.017C655.147 285.779 657.172 292.398 661.553 299.047L665.728 296.296C661.823 290.37 660.168 284.728 660.273 279.111C660.379 273.46 662.271 267.62 665.818 261.332L661.463 258.876ZM693.348 248.593C687.434 248.435 681.075 248.251 675.504 249.407C669.829 250.585 664.656 253.216 661.463 258.876L665.818 261.332C668.074 257.332 671.731 255.297 676.52 254.303C681.411 253.288 687.148 253.429 693.214 253.591L693.348 248.593ZM719.538 240.372C717.796 244.623 714.537 246.747 709.999 247.803C705.3 248.897 699.576 248.76 693.348 248.593L693.214 253.591C699.256 253.753 705.681 253.942 711.132 252.673C716.743 251.367 721.635 248.44 724.164 242.268L719.538 240.372ZM719.627 216.735C721.799 220.97 722.638 224.638 722.549 228.279C722.458 231.965 721.412 235.8 719.538 240.372L724.164 242.268C726.147 237.43 727.435 232.952 727.547 228.402C727.66 223.808 726.571 219.319 724.076 214.453L719.627 216.735ZM698.752 210.461C703.687 210.264 708.058 210.107 711.726 210.93C715.226 211.714 717.889 213.347 719.627 216.735L724.076 214.453C721.513 209.458 717.422 207.083 712.82 206.051C708.386 205.057 703.308 205.276 698.554 205.465L698.752 210.461ZM672.637 204.313C676.265 207.868 680.684 209.47 685.201 210.154C689.661 210.83 694.404 210.633 698.752 210.461L698.554 205.465C694.105 205.641 689.854 205.802 685.95 205.211C682.102 204.628 678.786 203.337 676.137 200.742L672.637 204.313ZM661.443 156.825C656.804 165.374 656.092 173.914 658.374 182.044C660.636 190.102 665.792 197.605 672.637 204.313L676.137 200.742C669.685 194.42 665.14 187.645 663.188 180.693C661.257 173.814 661.82 166.614 665.838 159.21L661.443 156.825ZM691.821 135.917C684.367 136.005 678.328 138.249 673.342 142.044C668.402 145.802 664.607 150.995 661.443 156.825L665.838 159.21C668.817 153.72 672.202 149.194 676.369 146.023C680.49 142.887 685.485 140.992 691.879 140.917L691.821 135.917ZM710.153 151.362C708.434 147.807 706.569 143.901 703.844 140.962C700.978 137.871 697.184 135.855 691.821 135.917L691.879 140.917C695.731 140.872 698.201 142.23 700.178 144.361C702.295 146.645 703.849 149.81 705.652 153.539L710.153 151.362ZM722.667 165.863C716.209 163.634 713.334 157.939 710.153 151.362L705.652 153.539C708.673 159.787 712.32 167.581 721.035 170.589L722.667 165.863ZM756.119 165.815C743.349 169.303 734.791 170.048 722.667 165.863L721.035 170.589C734.424 175.211 744.074 174.288 757.436 170.638L756.119 165.815ZM762.115 164.272C760.095 164.776 758.066 165.283 756.119 165.815L757.436 170.638C759.321 170.123 761.296 169.63 763.327 169.123L762.115 164.272ZM785.651 148.596C786.014 150.964 785.569 152.762 784.636 154.244C783.665 155.788 782.049 157.171 779.791 158.429C775.206 160.983 768.771 162.609 762.115 164.272L763.327 169.123C769.775 167.512 776.938 165.742 782.225 162.797C784.903 161.305 787.292 159.412 788.868 156.907C790.483 154.34 791.126 151.315 790.593 147.838L785.651 148.596ZM774.564 143.526C777.663 144.098 780.45 144.624 782.57 145.532C784.643 146.419 785.467 147.399 785.651 148.596L790.593 147.838C790.029 144.165 787.32 142.127 784.537 140.935C781.801 139.764 778.409 139.151 775.471 138.609L774.564 143.526ZM762.106 130.458C761.189 132.516 760.819 134.524 761.311 136.401C761.816 138.325 763.105 139.646 764.545 140.546C765.948 141.423 767.638 141.997 769.299 142.429C770.976 142.866 772.815 143.204 774.564 143.526L775.471 138.609C773.68 138.279 772.028 137.973 770.558 137.59C769.072 137.204 767.958 136.783 767.196 136.307C766.472 135.854 766.234 135.463 766.147 135.131C766.048 134.752 766.019 133.961 766.673 132.493L762.106 130.458ZM817.097 67.6158C801.345 72.5844 789.038 85.2147 780.027 97.9365C770.982 110.706 765.025 123.906 762.106 130.458L766.673 132.493C769.576 125.977 775.368 113.165 784.107 100.827C792.881 88.4401 804.392 76.8662 818.601 72.3842L817.097 67.6158Z" fill="black"/>
</svg>
